<?xml version="1.0" encoding="UTF-8"?><svg xmlns="http://www.w3.org/2000/svg" xmlns:xlink="http://www.w3.org/1999/xlink" contentScriptType="text/ecmascript" width="858.75" zoomAndPan="magnify" contentStyleType="text/css" viewBox="0 0 858.75 299.999988" height="299.999988" preserveAspectRatio="xMidYMid meet" version="1.0"><defs><filter x="0%" y="0%" width="100%" xmlns:xlink="http://www.w3.org/1999/xlink" xlink:type="simple" xlink:actuate="onLoad" height="100%" id="filter-remove-color" xlink:show="other"><feColorMatrix values="0 0 0 0 1 0 0 0 0 1 0 0 0 0 1 0 0 0 1 0" color-interpolation-filters="sRGB"/></filter><clipPath id="clip-0"><path d="M 56 117 L 255 117 L 255 226 L 56 226 Z M 56 117 " clip-rule="nonzero"/></clipPath><clipPath id="clip-1"><path d="M 248.398438 235.667969 L 49.636719 218.542969 L 59.230469 107.203125 L 257.992188 124.332031 Z M 248.398438 235.667969 " clip-rule="nonzero"/></clipPath><clipPath id="clip-2"><path d="M 49.929688 218.566406 L 248.691406 235.691406 L 258.285156 124.355469 L 59.523438 107.230469 Z M 49.929688 218.566406 " clip-rule="nonzero"/></clipPath><mask id="mask-0"><g filter="url(#filter-remove-color)"><rect x="-85.875" width="1030.5" fill="rgb(0%, 0%, 0%)" y="-29.999999" height="359.999986" fill-opacity="0.498"/></g></mask><clipPath id="clip-3"><path d="M 0 32 L 233 32 L 233 201 L 0 201 Z M 0 32 " clip-rule="nonzero"/></clipPath><clipPath id="clip-4"><path d="M -42.378906 94.949219 L 196.757812 0.125 L 250.113281 134.683594 L 10.976562 229.503906 Z M -42.378906 94.949219 " clip-rule="nonzero"/></clipPath><clipPath id="clip-5"><path d="M 196.777344 0.117188 L -42.359375 94.9375 L 10.996094 229.496094 L 250.132812 134.671875 Z M 196.777344 0.117188 " clip-rule="nonzero"/></clipPath><clipPath id="clip-6"><rect x="0" width="251" y="0" height="231"/></clipPath><mask id="mask-1"><g filter="url(#filter-remove-color)"><rect x="-85.875" width="1030.5" fill="rgb(0%, 0%, 0%)" y="-29.999999" height="359.999986" fill-opacity="0.498"/></g></mask><clipPath id="clip-7"><path d="M 0 4 L 253 4 L 253 156 L 0 156 Z M 0 4 " clip-rule="nonzero"/></clipPath><clipPath id="clip-8"><path d="M -15.003906 0.296875 L 255.65625 7.242188 L 251.75 159.441406 L -18.910156 152.496094 Z M -15.003906 0.296875 " clip-rule="nonzero"/></clipPath><clipPath id="clip-9"><path d="M 255.445312 7.234375 L -15.214844 0.289062 L -19.121094 152.492188 L 251.539062 159.4375 Z M 255.445312 7.234375 " clip-rule="nonzero"/></clipPath><clipPath id="clip-10"><rect x="0" width="256" y="0" height="160"/></clipPath><clipPath id="clip-11"><path d="M 553 130 L 748 130 L 748 242 L 553 242 Z M 553 130 " clip-rule="nonzero"/></clipPath><clipPath id="clip-12"><path d="M 568.898438 104.632812 L 762.980469 149.542969 L 737.738281 258.621094 L 543.65625 213.710938 Z M 568.898438 104.632812 " clip-rule="nonzero"/></clipPath><clipPath id="clip-13"><path d="M 762.976562 149.539062 L 568.894531 104.628906 L 543.65625 213.710938 L 737.734375 258.621094 Z M 762.976562 149.539062 " clip-rule="nonzero"/></clipPath><clipPath id="clip-14"><path d="M 659 113 L 857 113 L 857 233 L 659 233 Z M 659 113 " clip-rule="nonzero"/></clipPath><clipPath id="clip-15"><path d="M 867.140625 212.273438 L 670.515625 244.257812 L 652.539062 133.75 L 849.164062 101.765625 Z M 867.140625 212.273438 " clip-rule="nonzero"/></clipPath><clipPath id="clip-16"><path d="M 670.519531 244.257812 L 867.144531 212.273438 L 849.167969 101.765625 L 652.542969 133.75 Z M 670.519531 244.257812 " clip-rule="nonzero"/></clipPath><clipPath id="clip-17"><path d="M 422 104 L 605 104 L 605 230 L 422 230 Z M 422 104 " clip-rule="nonzero"/></clipPath><clipPath id="clip-18"><path d="M 571.042969 273.574219 L 393.183594 183.84375 L 443.613281 83.882812 L 621.472656 173.613281 Z M 571.042969 273.574219 " clip-rule="nonzero"/></clipPath><clipPath id="clip-19"><path d="M 393.1875 183.847656 L 571.046875 273.574219 L 621.476562 173.613281 L 443.617188 83.886719 Z M 393.1875 183.847656 " clip-rule="nonzero"/></clipPath><clipPath id="clip-20"><path d="M 808 83 L 858.5 83 L 858.5 201 L 808 201 Z M 808 83 " clip-rule="nonzero"/></clipPath><clipPath id="clip-21"><path d="M 800.277344 97.875 L 998.144531 74.78125 L 1011.125 185.988281 L 813.257812 209.078125 Z M 800.277344 97.875 " clip-rule="nonzero"/></clipPath><clipPath id="clip-22"><path d="M 998.140625 74.78125 L 800.273438 97.875 L 813.253906 209.082031 L 1011.121094 185.988281 Z M 998.140625 74.78125 " clip-rule="nonzero"/></clipPath><mask id="mask-2"><g filter="url(#filter-remove-color)"><rect x="-85.875" width="1030.5" fill="rgb(0%, 0%, 0%)" y="-29.999999" height="359.999986" fill-opacity="0.498"/></g></mask><clipPath id="clip-23"><path d="M 5 15 L 261 15 L 261 155 L 5 155 Z M 5 15 " clip-rule="nonzero"/></clipPath><clipPath id="clip-24"><path d="M 269.578125 145.613281 L 13.4375 169.152344 L 0.195312 25.070312 L 256.339844 1.53125 Z M 269.578125 145.613281 " clip-rule="nonzero"/></clipPath><clipPath id="clip-25"><path d="M 269.578125 145.613281 L 13.4375 169.152344 L 0.195312 25.070312 L 256.339844 1.53125 Z M 269.578125 145.613281 " clip-rule="nonzero"/></clipPath><clipPath id="clip-26"><rect x="0" width="270" y="0" height="170"/></clipPath><mask id="mask-3"><g filter="url(#filter-remove-color)"><rect x="-85.875" width="1030.5" fill="rgb(0%, 0%, 0%)" y="-29.999999" height="359.999986" fill-opacity="0.498"/></g></mask><clipPath id="clip-27"><path d="M 5 15 L 261 15 L 261 155 L 5 155 Z M 5 15 " clip-rule="nonzero"/></clipPath><clipPath id="clip-28"><path d="M 269.367188 145.082031 L 13.226562 168.625 L -0.015625 24.542969 L 256.128906 1.003906 Z M 269.367188 145.082031 " clip-rule="nonzero"/></clipPath><clipPath id="clip-29"><path d="M 269.367188 145.082031 L 13.226562 168.625 L -0.015625 24.542969 L 256.128906 1.003906 Z M 269.367188 145.082031 " clip-rule="nonzero"/></clipPath><clipPath id="clip-30"><rect x="0" width="270" y="0" height="169"/></clipPath><mask id="mask-4"><g filter="url(#filter-remove-color)"><rect x="-85.875" width="1030.5" fill="rgb(0%, 0%, 0%)" y="-29.999999" height="359.999986" fill-opacity="0.498"/></g></mask><clipPath id="clip-31"><path d="M 5 15 L 262 15 L 262 155 L 5 155 Z M 5 15 " clip-rule="nonzero"/></clipPath><clipPath id="clip-32"><path d="M 269.714844 145.363281 L 13.570312 168.902344 L 0.332031 24.820312 L 256.472656 1.28125 Z M 269.714844 145.363281 " clip-rule="nonzero"/></clipPath><clipPath id="clip-33"><path d="M 269.714844 145.363281 L 13.570312 168.902344 L 0.332031 24.820312 L 256.472656 1.28125 Z M 269.714844 145.363281 " clip-rule="nonzero"/></clipPath><clipPath id="clip-34"><rect x="0" width="270" y="0" height="169"/></clipPath><clipPath id="clip-35"><path d="M 634 99 L 858.5 99 L 858.5 268 L 634 268 Z M 634 99 " clip-rule="nonzero"/></clipPath><mask id="mask-5"><g filter="url(#filter-remove-color)"><rect x="-85.875" width="1030.5" fill="rgb(0%, 0%, 0%)" y="-29.999999" height="359.999986" fill-opacity="0.498"/></g></mask><clipPath id="clip-36"><path d="M 5 14 L 224.5 14 L 224.5 155 L 5 155 Z M 5 14 " clip-rule="nonzero"/></clipPath><clipPath id="clip-37"><path d="M 269.503906 144.832031 L 13.359375 168.375 L 0.121094 24.292969 L 256.261719 0.753906 Z M 269.503906 144.832031 " clip-rule="nonzero"/></clipPath><clipPath id="clip-38"><path d="M 269.503906 144.832031 L 13.359375 168.375 L 0.121094 24.292969 L 256.261719 0.753906 Z M 269.503906 144.832031 " clip-rule="nonzero"/></clipPath><clipPath id="clip-39"><rect x="0" width="225" y="0" height="169"/></clipPath><clipPath id="clip-40"><path d="M 620 90 L 858.5 90 L 858.5 267 L 620 267 Z M 620 90 " clip-rule="nonzero"/></clipPath><mask id="mask-6"><g filter="url(#filter-remove-color)"><rect x="-85.875" width="1030.5" fill="rgb(0%, 0%, 0%)" y="-29.999999" height="359.999986" fill-opacity="0.498"/></g></mask><clipPath id="clip-41"><path d="M 1 0.976562 L 238.5 0.976562 L 238.5 176.476562 L 1 176.476562 Z M 1 0.976562 " clip-rule="nonzero"/></clipPath><clipPath id="clip-42"><rect x="0" width="239" y="0" height="177"/></clipPath><clipPath id="clip-43"><path d="M 0 4 L 137 4 L 137 154 L 0 154 Z M 0 4 " clip-rule="nonzero"/></clipPath><clipPath id="clip-44"><path d="M -100.941406 -7.527344 L 147.902344 25.9375 L 129.085938 165.855469 L -119.753906 132.394531 Z M -100.941406 -7.527344 " clip-rule="nonzero"/></clipPath><clipPath id="clip-45"><path d="M -100.941406 -7.527344 L 147.902344 25.9375 L 129.085938 165.855469 L -119.753906 132.394531 Z M -100.941406 -7.527344 " clip-rule="nonzero"/></clipPath><clipPath id="clip-46"><path d="M 424 71 L 674 71 L 674 207 L 424 207 Z M 424 71 " clip-rule="nonzero"/></clipPath><clipPath id="clip-47"><path d="M 683.589844 194.695312 L 434.15625 223.390625 L 418.019531 83.136719 L 667.457031 54.441406 Z M 683.589844 194.695312 " clip-rule="nonzero"/></clipPath><clipPath id="clip-48"><path d="M 683.589844 194.695312 L 434.15625 223.390625 L 418.019531 83.136719 L 667.457031 54.441406 Z M 683.589844 194.695312 " clip-rule="nonzero"/></clipPath><clipPath id="clip-49"><path d="M 84 72 L 333 72 L 333 222 L 84 222 Z M 84 72 " clip-rule="nonzero"/></clipPath><clipPath id="clip-50"><path d="M 95.683594 60.238281 L 344.523438 93.703125 L 325.707031 233.621094 L 76.867188 200.160156 Z M 95.683594 60.238281 " clip-rule="nonzero"/></clipPath><clipPath id="clip-51"><path d="M 95.683594 60.238281 L 344.523438 93.703125 L 325.707031 233.621094 L 76.867188 200.160156 Z M 95.683594 60.238281 " clip-rule="nonzero"/></clipPath><clipPath id="clip-52"><path d="M 226 69 L 477 69 L 477 210 L 226 210 Z M 226 69 " clip-rule="nonzero"/></clipPath><clipPath id="clip-53"><path d="M 478.527344 207.710938 L 227.488281 212.472656 L 224.8125 71.316406 L 475.851562 66.558594 Z M 478.527344 207.710938 " clip-rule="nonzero"/></clipPath><clipPath id="clip-54"><path d="M 478.527344 207.710938 L 227.488281 212.472656 L 224.8125 71.316406 L 475.851562 66.558594 Z M 478.527344 207.710938 " clip-rule="nonzero"/></clipPath><clipPath id="clip-55"><path d="M 669 5 L 858.5 5 L 858.5 155 L 669 155 Z M 669 5 " clip-rule="nonzero"/></clipPath><clipPath id="clip-56"><path d="M 657.3125 28.417969 L 905.808594 -7.535156 L 926.023438 132.1875 L 677.527344 168.140625 Z M 657.3125 28.417969 " clip-rule="nonzero"/></clipPath><clipPath id="clip-57"><path d="M 905.738281 -7.527344 L 657.246094 28.425781 L 677.460938 168.148438 L 925.953125 132.199219 Z M 905.738281 -7.527344 " clip-rule="nonzero"/></clipPath><clipPath id="clip-58"><path d="M 823 36 L 855 36 L 855 87 L 823 87 Z M 823 36 " clip-rule="nonzero"/></clipPath><clipPath id="clip-59"><path d="M 816.523438 40.269531 L 847.722656 32.101562 L 861.019531 82.886719 L 829.824219 91.058594 Z M 816.523438 40.269531 " clip-rule="nonzero"/></clipPath><clipPath id="clip-60"><path d="M 816.523438 40.269531 L 847.722656 32.101562 L 861.019531 82.886719 L 829.824219 91.058594 Z M 816.523438 40.269531 " clip-rule="nonzero"/></clipPath><clipPath id="clip-61"><path d="M 346 60 L 371 60 L 371 101 L 346 101 Z M 346 60 " clip-rule="nonzero"/></clipPath><clipPath id="clip-62"><path d="M 347.578125 59.335938 L 372.28125 60.839844 L 369.824219 101.265625 L 345.121094 99.761719 Z M 347.578125 59.335938 " clip-rule="nonzero"/></clipPath><clipPath id="clip-63"><path d="M 347.578125 59.335938 L 372.28125 60.839844 L 369.824219 101.265625 L 345.121094 99.761719 Z M 347.578125 59.335938 " clip-rule="nonzero"/></clipPath><clipPath id="clip-64"><path d="M 167 61 L 204 61 L 204 99 L 167 99 Z M 167 61 " clip-rule="nonzero"/></clipPath><clipPath id="clip-65"><path d="M 164.765625 65.527344 L 200.710938 57.863281 L 208.058594 92.339844 L 172.117188 100 Z M 164.765625 65.527344 " clip-rule="nonzero"/></clipPath><clipPath id="clip-66"><path d="M 164.765625 65.527344 L 200.710938 57.863281 L 208.058594 92.339844 L 172.117188 100 Z M 164.765625 65.527344 " clip-rule="nonzero"/></clipPath><clipPath id="clip-67"><path d="M 703 51 L 737 51 L 737 85 L 703 85 Z M 703 51 " clip-rule="nonzero"/></clipPath><clipPath id="clip-68"><path d="M 705.199219 49.527344 L 737.886719 54.078125 L 733.542969 85.277344 L 700.855469 80.726562 Z M 705.199219 49.527344 " clip-rule="nonzero"/></clipPath><clipPath id="clip-69"><path d="M 705.199219 49.527344 L 737.886719 54.078125 L 733.542969 85.277344 L 700.855469 80.726562 Z M 705.199219 49.527344 " clip-rule="nonzero"/></clipPath><clipPath id="clip-70"><path d="M 27 11 L 68 11 L 68 49 L 27 49 Z M 27 11 " clip-rule="nonzero"/></clipPath><clipPath id="clip-71"><path d="M 30.96875 8.65625 L 70.019531 19.394531 L 60.476562 54.105469 L 21.425781 43.367188 Z M 30.96875 8.65625 " clip-rule="nonzero"/></clipPath><clipPath id="clip-72"><path d="M 30.96875 8.65625 L 70.019531 19.394531 L 60.476562 54.105469 L 21.425781 43.367188 Z M 30.96875 8.65625 " clip-rule="nonzero"/></clipPath><clipPath id="clip-73"><path d="M 553 60 L 584 60 L 584 89 L 553 89 Z M 553 60 " clip-rule="nonzero"/></clipPath><clipPath id="clip-74"><path d="M 552.152344 63.753906 L 582.582031 59.332031 L 586.464844 86.050781 L 556.035156 90.472656 Z M 552.152344 63.753906 " clip-rule="nonzero"/></clipPath><clipPath id="clip-75"><path d="M 552.152344 63.753906 L 582.582031 59.332031 L 586.464844 86.050781 L 556.035156 90.472656 Z M 552.152344 63.753906 " clip-rule="nonzero"/></clipPath><mask id="mask-7"><g filter="url(#filter-remove-color)"><rect x="-85.875" width="1030.5" fill="rgb(0%, 0%, 0%)" y="-29.999999" height="359.999986" fill-opacity="0.498"/></g></mask><clipPath id="clip-76"><path d="M 0 5 L 126 5 L 126 96 L 0 96 Z M 0 5 " clip-rule="nonzero"/></clipPath><clipPath id="clip-77"><path d="M -33.378906 13.859375 L 120.511719 0.136719 L 128.238281 86.792969 L -25.648438 100.515625 Z M -33.378906 13.859375 " clip-rule="nonzero"/></clipPath><clipPath id="clip-78"><path d="M 120.769531 0.113281 L -33.121094 13.835938 L -25.394531 100.492188 L 128.496094 86.769531 Z M 120.769531 0.113281 " clip-rule="nonzero"/></clipPath><clipPath id="clip-79"><rect x="0" width="129" y="0" height="101"/></clipPath><mask id="mask-8"><g filter="url(#filter-remove-color)"><rect x="-85.875" width="1030.5" fill="rgb(0%, 0%, 0%)" y="-29.999999" height="359.999986" fill-opacity="0.498"/></g></mask><clipPath id="clip-80"><path d="M 14 34 L 155 34 L 155 134 L 14 134 Z M 14 34 " clip-rule="nonzero"/></clipPath><clipPath id="clip-81"><path d="M 42.027344 0.253906 L 178.222656 73.203125 L 137.144531 149.894531 L 0.953125 76.945312 Z M 42.027344 0.253906 " clip-rule="nonzero"/></clipPath><clipPath id="clip-82"><path d="M 178.449219 73.324219 L 42.257812 0.378906 L 1.179688 77.070312 L 137.371094 150.015625 Z M 178.449219 73.324219 " clip-rule="nonzero"/></clipPath><clipPath id="clip-83"><rect x="0" width="179" y="0" height="151"/></clipPath><clipPath id="clip-84"><path d="M 0 102 L 134 102 L 134 228 L 0 228 Z M 0 102 " clip-rule="nonzero"/></clipPath><clipPath id="clip-85"><path d="M -14.433594 58.320312 L 163.015625 149.492188 L 111.945312 248.890625 L -65.503906 157.71875 Z M -14.433594 58.320312 " clip-rule="nonzero"/></clipPath><clipPath id="clip-86"><path d="M 162.753906 149.359375 L -14.695312 58.1875 L -65.765625 157.585938 L 111.683594 248.753906 Z M 162.753906 149.359375 " clip-rule="nonzero"/></clipPath><clipPath id="clip-87"><path d="M 64 192 L 81 192 L 81 220 L 64 220 Z M 64 192 " clip-rule="nonzero"/></clipPath><clipPath id="clip-88"><path d="M 65.28125 191.625 L 82.109375 192.996094 L 79.875 220.453125 L 63.046875 219.082031 Z M 65.28125 191.625 " clip-rule="nonzero"/></clipPath><clipPath id="clip-89"><path d="M 65.28125 191.625 L 82.109375 192.996094 L 79.875 220.453125 L 63.046875 219.082031 Z M 65.28125 191.625 " clip-rule="nonzero"/></clipPath><clipPath id="clip-90"><path d="M 33 191 L 62 191 L 62 237 L 33 237 Z M 33 191 " clip-rule="nonzero"/></clipPath><clipPath id="clip-91"><path d="M 34.964844 190.613281 L 63.308594 192.917969 L 59.628906 238.089844 L 31.289062 235.78125 Z M 34.964844 190.613281 " clip-rule="nonzero"/></clipPath><clipPath id="clip-92"><path d="M 34.964844 190.613281 L 63.308594 192.917969 L 59.628906 238.089844 L 31.289062 235.78125 Z M 34.964844 190.613281 " clip-rule="nonzero"/></clipPath><clipPath id="clip-93"><path d="M 202 123 L 400 123 L 400 230 L 202 230 Z M 202 123 " clip-rule="nonzero"/></clipPath><clipPath id="clip-94"><path d="M 211.5625 108.386719 L 409.355469 134.453125 L 394.753906 245.246094 L 196.964844 219.179688 Z M 211.5625 108.386719 " clip-rule="nonzero"/></clipPath><clipPath id="clip-95"><path d="M 409.0625 134.414062 L 211.273438 108.351562 L 196.671875 219.140625 L 394.460938 245.207031 Z M 409.0625 134.414062 " clip-rule="nonzero"/></clipPath><mask id="mask-9"><g filter="url(#filter-remove-color)"><rect x="-85.875" width="1030.5" fill="rgb(0%, 0%, 0%)" y="-29.999999" height="359.999986" fill-opacity="0.498"/></g></mask><clipPath id="clip-96"><path d="M 0.121094 0.234375 L 242.964844 0.234375 L 242.964844 136.734375 L 0.121094 136.734375 Z M 0.121094 0.234375 " clip-rule="nonzero"/></clipPath><clipPath id="clip-97"><rect x="0" width="244" y="0" height="138"/></clipPath><mask id="mask-10"><g filter="url(#filter-remove-color)"><rect x="-85.875" width="1030.5" fill="rgb(0%, 0%, 0%)" y="-29.999999" height="359.999986" fill-opacity="0.498"/></g></mask><clipPath id="clip-98"><path d="M 0.175781 0.308594 L 242.871094 0.308594 L 242.871094 136.808594 L 0.175781 136.808594 Z M 0.175781 0.308594 " clip-rule="nonzero"/></clipPath><clipPath id="clip-99"><rect x="0" width="243" y="0" height="138"/></clipPath><clipPath id="clip-100"><path d="M 656 119 L 685 119 L 685 148 L 656 148 Z M 656 119 " clip-rule="nonzero"/></clipPath><clipPath id="clip-101"><path d="M 655.523438 121.050781 L 683.855469 117.980469 L 686.765625 144.820312 L 658.433594 147.894531 Z M 655.523438 121.050781 " clip-rule="nonzero"/></clipPath><clipPath id="clip-102"><path d="M 655.523438 121.050781 L 683.855469 117.980469 L 686.765625 144.820312 L 658.433594 147.894531 Z M 655.523438 121.050781 " clip-rule="nonzero"/></clipPath><clipPath id="clip-103"><path d="M 550 191 L 562 191 L 562 211 L 550 211 Z M 550 191 " clip-rule="nonzero"/></clipPath><clipPath id="clip-104"><path d="M 552.257812 190.664062 L 563.773438 193.191406 L 559.648438 211.980469 L 548.136719 209.453125 Z M 552.257812 190.664062 " clip-rule="nonzero"/></clipPath><clipPath id="clip-105"><path d="M 552.257812 190.664062 L 563.773438 193.191406 L 559.648438 211.980469 L 548.136719 209.453125 Z M 552.257812 190.664062 " clip-rule="nonzero"/></clipPath><clipPath id="clip-106"><path d="M 528 189 L 548 189 L 548 221 L 528 221 Z M 528 189 " clip-rule="nonzero"/></clipPath><clipPath id="clip-107"><path d="M 531.378906 187.117188 L 550.773438 191.375 L 543.988281 222.28125 L 524.59375 218.027344 Z M 531.378906 187.117188 " clip-rule="nonzero"/></clipPath><clipPath id="clip-108"><path d="M 531.378906 187.117188 L 550.773438 191.375 L 543.988281 222.28125 L 524.59375 218.027344 Z M 531.378906 187.117188 " clip-rule="nonzero"/></clipPath></defs><g clip-path="url(#clip-0)"><g clip-path="url(#clip-1)"><g clip-path="url(#clip-2)"><path fill="rgb(100%, 100%, 100%)" d="M 254.085938 168.300781 C 255.476562 152.132812 243.46875 137.902344 227.253906 136.503906 C 226.6875 136.457031 226.121094 136.40625 225.511719 136.394531 C 222.261719 136.316406 219.089844 136.734375 216.117188 137.65625 C 214.519531 135.40625 212.746094 133.304688 210.796875 131.351562 C 203.21875 123.792969 193.027344 118.734375 181.503906 117.738281 C 171.394531 116.867188 161.742188 119.246094 153.59375 124.023438 C 151.394531 123.0625 149.097656 122.296875 146.746094 121.6875 C 144.199219 121.023438 141.585938 120.59375 138.878906 120.363281 C 130.386719 119.628906 122.230469 121.199219 114.980469 124.515625 C 111.839844 125.949219 108.917969 127.730469 106.175781 129.808594 C 101.472656 125.300781 95.253906 122.289062 88.261719 121.683594 C 76.820312 120.699219 66.351562 126.375 60.679688 135.472656 C 58.316406 139.289062 56.796875 143.664062 56.386719 148.421875 C 54.996094 164.585938 67.003906 178.820312 83.21875 180.214844 C 83.339844 180.226562 83.460938 180.238281 83.582031 180.246094 C 84.621094 203.605469 102.816406 223.125 126.75 225.1875 C 141.910156 226.492188 156.035156 220.480469 165.5625 210.09375 C 168.113281 210.761719 170.722656 211.1875 173.429688 211.421875 C 190.007812 212.847656 205.296875 205.558594 214.777344 193.378906 C 217.109375 194.230469 219.628906 194.773438 222.214844 194.996094 C 237.820312 196.339844 251.640625 185.308594 253.894531 170.027344 C 253.945312 169.464844 254.03125 168.902344 254.085938 168.300781 Z M 254.085938 168.300781 " fill-opacity="1" fill-rule="nonzero"/></g></g></g><g mask="url(#mask-0)"><g transform="matrix(1, 0, 0, 1, 0, 39)"><g id="source-5" clip-path="url(#clip-6)"><g clip-path="url(#clip-3)"><g clip-path="url(#clip-4)"><g clip-path="url(#clip-5)"><path fill="rgb(100%, 100%, 100%)" d="M -9.585938 176.152344 C -1.839844 195.6875 20.246094 205.25 39.753906 197.515625 C 40.433594 197.246094 41.117188 196.976562 41.824219 196.636719 C 45.621094 194.851562 49.039062 192.539062 51.929688 189.757812 C 55.074219 191.441406 58.335938 192.855469 61.71875 193.996094 C 74.828125 198.378906 89.511719 198.363281 103.375 192.867188 C 115.535156 188.046875 125.292969 179.722656 131.929688 169.480469 C 135.019531 169.324219 138.109375 168.890625 141.175781 168.238281 C 144.5 167.539062 147.757812 166.53125 151.015625 165.238281 C 161.230469 161.1875 169.734375 154.660156 176.175781 146.636719 C 178.964844 143.160156 181.304688 139.414062 183.269531 135.421875 C 191.300781 137.933594 200.214844 137.835938 208.628906 134.5 C 222.394531 129.042969 231.183594 116.425781 232.460938 102.613281 C 232.980469 96.824219 232.199219 90.875 229.917969 85.128906 C 222.171875 65.59375 200.085938 56.027344 180.578125 63.761719 C 180.433594 63.820312 180.289062 63.878906 180.140625 63.9375 C 165.425781 37.46875 133.148438 25.347656 104.351562 36.765625 C 86.113281 43.996094 73.304688 59.113281 68.324219 76.648438 C 65 77.34375 61.738281 78.355469 58.480469 79.648438 C 38.539062 87.554688 25.121094 104.828125 21.234375 124.410156 C 18.054688 124.769531 14.835938 125.59375 11.722656 126.828125 C -7.050781 134.273438 -16.609375 155.03125 -10.367188 174.035156 C -10.097656 174.71875 -9.875 175.417969 -9.585938 176.152344 Z M -9.585938 176.152344 " fill-opacity="1" fill-rule="nonzero"/></g></g></g></g></g></g><g mask="url(#mask-1)"><g transform="matrix(1, 0, 0, 1, 0, 80)"><g id="source-8" clip-path="url(#clip-10)"><g clip-path="url(#clip-7)"><g clip-path="url(#clip-8)"><g clip-path="url(#clip-9)"><path fill="rgb(100%, 100%, 100%)" d="M -17.019531 92.386719 C -17.585938 114.484375 -0.152344 132.851562 21.921875 133.417969 C 22.695312 133.4375 23.464844 133.457031 24.292969 133.421875 C 28.703125 133.261719 32.964844 132.433594 36.914062 130.933594 C 39.265625 133.863281 41.839844 136.574219 44.640625 139.074219 C 55.519531 148.726562 69.746094 154.769531 85.433594 155.171875 C 99.199219 155.527344 112.082031 151.5 122.734375 144.332031 C 125.789062 145.457031 128.964844 146.308594 132.199219 146.945312 C 135.707031 147.640625 139.277344 148.007812 142.964844 148.101562 C 154.527344 148.398438 165.453125 145.59375 175.003906 140.488281 C 179.136719 138.277344 182.953125 135.621094 186.5 132.566406 C 193.238281 138.308594 201.90625 141.894531 211.429688 142.140625 C 227.011719 142.539062 240.730469 133.960938 247.667969 121.125 C 250.5625 115.738281 252.261719 109.660156 252.425781 103.160156 C 252.996094 81.0625 235.5625 62.695312 213.484375 62.128906 C 213.320312 62.125 213.15625 62.121094 212.988281 62.113281 C 209.671875 30.433594 183.429688 5.386719 150.835938 4.550781 C 130.191406 4.023438 111.550781 13.359375 99.488281 28.269531 C 95.980469 27.570312 92.410156 27.203125 88.722656 27.109375 C 66.148438 26.53125 46.03125 37.703125 34.179688 55.046875 C 30.953125 54.082031 27.496094 53.550781 23.972656 53.460938 C 2.722656 52.914062 -15.097656 69.054688 -16.90625 90.015625 C -16.925781 90.789062 -17 91.558594 -17.019531 92.386719 Z M -17.019531 92.386719 " fill-opacity="1" fill-rule="nonzero"/></g></g></g></g></g></g><g clip-path="url(#clip-11)"><g clip-path="url(#clip-12)"><g clip-path="url(#clip-13)"><path fill="rgb(100%, 100%, 100%)" d="M 554.023438 170.714844 C 550.359375 186.550781 560.21875 202.355469 576.050781 206.019531 C 576.601562 206.148438 577.15625 206.273438 577.757812 206.371094 C 580.960938 206.90625 584.15625 206.9375 587.222656 206.441406 C 588.484375 208.894531 589.941406 211.230469 591.59375 213.441406 C 598.011719 222.003906 607.375 228.453125 618.628906 231.058594 C 628.496094 233.34375 638.378906 232.339844 647.113281 228.746094 C 649.148438 230.007812 651.3125 231.089844 653.546875 232.023438 C 655.976562 233.042969 658.496094 233.835938 661.140625 234.445312 C 669.429688 236.363281 677.71875 235.953125 685.355469 233.683594 C 688.660156 232.703125 691.804688 231.347656 694.8125 229.671875 C 698.824219 234.804688 704.542969 238.664062 711.371094 240.246094 C 722.542969 242.832031 733.699219 238.671875 740.589844 230.445312 C 743.46875 226.992188 745.589844 222.867188 746.667969 218.207031 C 750.332031 202.367188 740.472656 186.566406 724.640625 182.902344 C 724.523438 182.875 724.40625 182.847656 724.285156 182.820312 C 726.5625 159.503906 711.335938 137.589844 687.964844 132.183594 C 673.160156 128.757812 658.347656 132.734375 647.457031 141.699219 C 645.03125 140.679688 642.511719 139.890625 639.867188 139.277344 C 623.679688 135.53125 607.53125 140.613281 596.433594 151.363281 C 594.25 150.191406 591.835938 149.300781 589.308594 148.714844 C 574.070312 145.1875 558.84375 154.1875 554.457031 169.027344 C 554.328125 169.578125 554.160156 170.121094 554.023438 170.714844 Z M 554.023438 170.714844 " fill-opacity="1" fill-rule="nonzero"/></g></g></g><g clip-path="url(#clip-14)"><g clip-path="url(#clip-15)"><g clip-path="url(#clip-16)"><path fill="rgb(100%, 100%, 100%)" d="M 855.863281 145.480469 C 853.253906 129.4375 838.140625 118.546875 822.101562 121.15625 C 821.542969 121.246094 820.980469 121.339844 820.386719 121.476562 C 817.222656 122.195312 814.253906 123.378906 811.601562 125 C 809.503906 123.207031 807.269531 121.597656 804.90625 120.175781 C 795.71875 114.6875 784.609375 112.265625 773.210938 114.121094 C 763.210938 115.746094 754.449219 120.417969 747.726562 127.054688 C 745.363281 126.65625 742.953125 126.476562 740.527344 126.460938 C 737.898438 126.433594 735.265625 126.660156 732.585938 127.09375 C 724.1875 128.460938 716.671875 131.984375 710.464844 136.976562 C 707.777344 139.136719 705.382812 141.582031 703.234375 144.273438 C 697.578125 141.042969 690.820312 139.636719 683.902344 140.761719 C 672.582031 142.605469 663.839844 150.679688 660.574219 160.902344 C 659.21875 165.191406 658.820312 169.8125 659.589844 174.535156 C 662.199219 190.578125 677.3125 201.46875 693.351562 198.859375 C 693.472656 198.839844 693.59375 198.820312 693.710938 198.800781 C 700.441406 221.238281 722.835938 235.746094 746.511719 231.894531 C 761.511719 229.457031 773.710938 220.160156 780.394531 207.738281 C 783.023438 207.761719 785.65625 207.539062 788.335938 207.105469 C 804.734375 204.4375 817.753906 193.613281 823.949219 179.460938 C 826.414062 179.71875 828.984375 179.628906 831.546875 179.210938 C 846.984375 176.699219 857.664062 162.601562 856.101562 147.207031 C 856.011719 146.648438 855.960938 146.082031 855.863281 145.480469 Z M 855.863281 145.480469 " fill-opacity="1" fill-rule="nonzero"/></g></g></g><g clip-path="url(#clip-17)"><g clip-path="url(#clip-18)"><g clip-path="url(#clip-19)"><path fill="rgb(100%, 100%, 100%)" d="M 601.191406 212.914062 C 608.511719 198.402344 602.6875 180.707031 588.179688 173.390625 C 587.675781 173.132812 587.167969 172.878906 586.605469 172.640625 C 583.621094 171.363281 580.523438 170.570312 577.425781 170.324219 C 576.785156 167.640625 575.925781 165.027344 574.847656 162.484375 C 570.644531 152.644531 563.082031 144.15625 552.769531 138.953125 C 543.726562 134.390625 533.890625 133.015625 524.550781 134.433594 C 522.871094 132.722656 521.03125 131.15625 519.078125 129.71875 C 516.964844 128.152344 514.703125 126.785156 512.277344 125.5625 C 504.679688 121.730469 496.53125 120.160156 488.574219 120.550781 C 485.128906 120.71875 481.757812 121.289062 478.4375 122.203125 C 475.757812 116.265625 471.121094 111.15625 464.863281 107.996094 C 454.625 102.832031 442.800781 104.222656 434.152344 110.574219 C 430.535156 113.246094 427.496094 116.75 425.339844 121.023438 C 418.019531 135.535156 423.84375 153.230469 438.351562 160.546875 C 438.460938 160.601562 438.566406 160.65625 438.675781 160.710938 C 430.925781 182.816406 440.511719 207.722656 461.929688 218.527344 C 475.496094 225.371094 490.828125 225.023438 503.539062 218.90625 C 505.652344 220.472656 507.914062 221.839844 510.335938 223.0625 C 525.171875 230.546875 542.066406 229.445312 555.398438 221.640625 C 557.238281 223.296875 559.371094 224.734375 561.6875 225.902344 C 575.652344 232.949219 592.582031 227.824219 600.367188 214.453125 C 600.625 213.945312 600.917969 213.457031 601.191406 212.914062 Z M 601.191406 212.914062 " fill-opacity="1" fill-rule="nonzero"/></g></g></g><g clip-path="url(#clip-20)"><g clip-path="url(#clip-21)"><g clip-path="url(#clip-22)"><path fill="rgb(100%, 100%, 100%)" d="M 808.53125 165.105469 C 810.417969 181.25 825.023438 192.808594 841.164062 190.925781 C 841.726562 190.859375 842.292969 190.796875 842.890625 190.683594 C 846.085938 190.105469 849.105469 189.0625 851.828125 187.558594 C 853.84375 189.445312 856 191.152344 858.300781 192.679688 C 867.226562 198.578125 878.21875 201.5 889.6875 200.160156 C 899.75 198.984375 908.714844 194.714844 915.730469 188.386719 C 918.070312 188.886719 920.472656 189.179688 922.894531 189.304688 C 925.523438 189.449219 928.160156 189.34375 930.859375 189.027344 C 939.308594 188.042969 946.976562 184.863281 953.402344 180.152344 C 956.183594 178.113281 958.683594 175.78125 960.953125 173.191406 C 966.457031 176.671875 973.144531 178.378906 980.109375 177.566406 C 991.496094 176.238281 1000.597656 168.566406 1004.316406 158.5 C 1005.863281 154.277344 1006.46875 149.675781 1005.917969 144.925781 C 1004.03125 128.78125 989.425781 117.222656 973.285156 119.105469 C 973.164062 119.121094 973.042969 119.132812 972.921875 119.148438 C 967.210938 96.429688 945.492188 80.925781 921.667969 83.707031 C 906.574219 85.46875 893.964844 94.203125 886.730469 106.3125 C 884.101562 106.167969 881.464844 106.273438 878.765625 106.589844 C 862.265625 108.515625 848.773438 118.742188 841.945312 132.597656 C 839.496094 132.230469 836.921875 132.203125 834.347656 132.503906 C 818.808594 134.316406 807.507812 147.921875 808.371094 163.371094 C 808.4375 163.933594 808.460938 164.5 808.53125 165.105469 Z M 808.53125 165.105469 " fill-opacity="1" fill-rule="nonzero"/></g></g></g><g mask="url(#mask-2)"><g transform="matrix(1, 0, 0, 1, 282, 73)"><g id="source-11" clip-path="url(#clip-26)"><g clip-path="url(#clip-23)"><g clip-path="url(#clip-24)"><g clip-path="url(#clip-25)"><path fill="rgb(100%, 100%, 100%)" d="M 5.957031 81.933594 C 4.035156 61.015625 19.40625 42.507812 40.300781 40.585938 C 41.03125 40.519531 41.757812 40.453125 42.546875 40.433594 C 46.738281 40.308594 50.832031 40.828125 54.667969 42 C 56.710938 39.078125 58.984375 36.34375 61.480469 33.800781 C 71.191406 23.964844 84.292969 17.34375 99.144531 15.976562 C 112.167969 14.78125 124.632812 17.789062 135.179688 23.921875 C 138.007812 22.664062 140.960938 21.65625 143.988281 20.851562 C 147.269531 19.972656 150.632812 19.398438 154.121094 19.078125 C 165.0625 18.074219 175.597656 20.050781 184.96875 24.292969 C 189.027344 26.128906 192.808594 28.410156 196.363281 31.082031 C 202.394531 25.214844 210.386719 21.273438 219.398438 20.445312 C 234.144531 19.089844 247.683594 26.367188 255.066406 38.105469 C 258.148438 43.027344 260.136719 48.683594 260.703125 54.839844 C 262.625 75.757812 247.25 94.269531 226.359375 96.1875 C 226.203125 96.203125 226.046875 96.21875 225.890625 96.230469 C 224.730469 126.480469 201.421875 151.875 170.582031 154.710938 C 151.042969 156.503906 132.789062 148.820312 120.417969 135.4375 C 117.136719 136.316406 113.773438 136.886719 110.285156 137.210938 C 88.921875 139.171875 69.152344 129.835938 56.832031 114.136719 C 53.835938 115.253906 50.589844 115.972656 47.257812 116.277344 C 27.144531 118.125 9.238281 103.9375 6.214844 84.171875 C 6.148438 83.441406 6.027344 82.71875 5.957031 81.933594 Z M 5.957031 81.933594 " fill-opacity="1" fill-rule="nonzero"/></g></g></g></g></g></g><g mask="url(#mask-3)"><g transform="matrix(1, 0, 0, 1, 372, 53)"><g id="source-14" clip-path="url(#clip-30)"><g clip-path="url(#clip-27)"><g clip-path="url(#clip-28)"><g clip-path="url(#clip-29)"><path fill="rgb(100%, 100%, 100%)" d="M 5.746094 81.40625 C 3.824219 60.488281 19.199219 41.980469 40.089844 40.058594 C 40.820312 39.992188 41.546875 39.925781 42.335938 39.90625 C 46.527344 39.78125 50.621094 40.300781 54.457031 41.472656 C 56.5 38.550781 58.773438 35.816406 61.269531 33.273438 C 70.980469 23.4375 84.082031 16.8125 98.933594 15.449219 C 111.957031 14.253906 124.421875 17.261719 134.96875 23.394531 C 137.796875 22.136719 140.75 21.128906 143.777344 20.324219 C 147.058594 19.445312 150.421875 18.871094 153.914062 18.550781 C 164.851562 17.546875 175.386719 19.523438 184.757812 23.765625 C 188.816406 25.601562 192.597656 27.882812 196.15625 30.554688 C 202.183594 24.6875 210.175781 20.746094 219.1875 19.917969 C 233.933594 18.5625 247.472656 25.839844 254.855469 37.574219 C 257.9375 42.5 259.925781 48.15625 260.492188 54.3125 C 262.414062 75.230469 247.039062 93.742188 226.148438 95.660156 C 225.992188 95.675781 225.835938 95.691406 225.679688 95.703125 C 224.519531 125.953125 201.214844 151.347656 170.371094 154.183594 C 150.832031 155.976562 132.578125 148.292969 120.207031 134.910156 C 116.925781 135.789062 113.566406 136.359375 110.074219 136.679688 C 88.710938 138.644531 68.941406 129.308594 56.621094 113.609375 C 53.625 114.726562 50.378906 115.445312 47.046875 115.75 C 26.933594 117.597656 9.027344 103.410156 6.003906 83.644531 C 5.9375 82.914062 5.816406 82.1875 5.746094 81.40625 Z M 5.746094 81.40625 " fill-opacity="1" fill-rule="nonzero"/></g></g></g></g></g></g><g mask="url(#mask-4)"><g transform="matrix(1, 0, 0, 1, 544, 119)"><g id="source-17" clip-path="url(#clip-34)"><g clip-path="url(#clip-31)"><g clip-path="url(#clip-32)"><g clip-path="url(#clip-33)"><path fill="rgb(100%, 100%, 100%)" d="M 6.089844 81.683594 C 4.167969 60.765625 19.542969 42.257812 40.433594 40.335938 C 41.164062 40.269531 41.894531 40.203125 42.679688 40.183594 C 46.871094 40.0625 50.964844 40.578125 54.804688 41.75 C 56.847656 38.828125 59.117188 36.09375 61.617188 33.550781 C 71.324219 23.714844 84.429688 17.09375 99.277344 15.726562 C 112.304688 14.53125 124.769531 17.539062 135.316406 23.671875 C 138.140625 22.414062 141.097656 21.40625 144.121094 20.601562 C 147.402344 19.722656 150.765625 19.148438 154.257812 18.828125 C 165.199219 17.824219 175.730469 19.800781 185.105469 24.042969 C 189.160156 25.878906 192.945312 28.164062 196.5 30.832031 C 202.527344 24.964844 210.519531 21.023438 219.53125 20.195312 C 234.277344 18.839844 247.820312 26.117188 255.203125 37.855469 C 258.28125 42.777344 260.273438 48.433594 260.839844 54.589844 C 262.761719 75.507812 247.386719 94.019531 226.492188 95.9375 C 226.335938 95.953125 226.179688 95.96875 226.023438 95.980469 C 224.863281 126.230469 201.558594 151.625 170.714844 154.460938 C 151.175781 156.253906 132.921875 148.570312 120.554688 135.1875 C 117.273438 136.066406 113.910156 136.640625 110.417969 136.960938 C 89.058594 138.921875 69.285156 129.585938 56.964844 113.886719 C 53.96875 115.003906 50.726562 115.722656 47.390625 116.027344 C 27.28125 117.875 9.375 103.6875 6.347656 83.921875 C 6.28125 83.191406 6.164062 82.46875 6.089844 81.683594 Z M 6.089844 81.683594 " fill-opacity="1" fill-rule="nonzero"/></g></g></g></g></g></g><g clip-path="url(#clip-35)"><g mask="url(#mask-5)"><g transform="matrix(1, 0, 0, 1, 634, 99)"><g id="source-20" clip-path="url(#clip-39)"><g clip-path="url(#clip-36)"><g clip-path="url(#clip-37)"><g clip-path="url(#clip-38)"><path fill="rgb(100%, 100%, 100%)" d="M 5.878906 81.15625 C 3.957031 60.238281 19.332031 41.730469 40.222656 39.808594 C 40.953125 39.742188 41.683594 39.675781 42.46875 39.65625 C 46.660156 39.53125 50.753906 40.050781 54.59375 41.222656 C 56.636719 38.300781 58.90625 35.566406 61.40625 33.023438 C 71.113281 23.1875 84.21875 16.566406 99.066406 15.199219 C 112.09375 14.003906 124.558594 17.011719 135.105469 23.144531 C 137.929688 21.886719 140.886719 20.878906 143.910156 20.074219 C 147.195312 19.195312 150.554688 18.621094 154.046875 18.300781 C 164.988281 17.296875 175.519531 19.273438 184.894531 23.515625 C 188.953125 25.351562 192.734375 27.632812 196.289062 30.304688 C 202.316406 24.4375 210.308594 20.496094 219.324219 19.667969 C 234.066406 18.3125 247.609375 25.589844 254.992188 37.328125 C 258.070312 42.25 260.0625 47.90625 260.628906 54.0625 C 262.550781 74.980469 247.175781 93.492188 226.285156 95.410156 C 226.128906 95.425781 225.972656 95.441406 225.816406 95.453125 C 224.652344 125.703125 201.347656 151.097656 170.503906 153.933594 C 150.96875 155.726562 132.710938 148.042969 120.34375 134.660156 C 117.0625 135.539062 113.699219 136.109375 110.207031 136.433594 C 88.847656 138.394531 69.074219 129.058594 56.757812 113.359375 C 53.757812 114.476562 50.515625 115.195312 47.179688 115.5 C 27.070312 117.347656 9.164062 103.160156 6.136719 83.394531 C 6.070312 82.664062 5.953125 81.9375 5.878906 81.15625 Z M 5.878906 81.15625 " fill-opacity="1" fill-rule="nonzero"/></g></g></g></g></g></g></g><g clip-path="url(#clip-40)"><g mask="url(#mask-6)"><g transform="matrix(1, 0, 0, 1, 620, 90)"><g id="source-23" clip-path="url(#clip-42)"><g clip-path="url(#clip-41)"><path fill="rgb(100%, 100%, 100%)" d="M 312.75 70.296875 C 312.75 44.820312 292.074219 24.167969 266.5625 24.167969 C 265.671875 24.167969 264.78125 24.167969 263.828125 24.230469 C 258.738281 24.550781 253.839844 25.628906 249.324219 27.472656 C 246.523438 24.167969 243.46875 21.117188 240.160156 18.320312 C 227.3125 7.519531 210.707031 0.976562 192.574219 0.976562 C 176.671875 0.976562 161.910156 5.996094 149.824219 14.574219 C 146.261719 13.367188 142.570312 12.476562 138.820312 11.839844 C 134.746094 11.140625 130.613281 10.824219 126.347656 10.824219 C 112.988281 10.824219 100.457031 14.382812 89.578125 20.546875 C 84.871094 23.214844 80.542969 26.390625 76.535156 30.015625 C 68.585938 23.597656 58.46875 19.71875 47.464844 19.71875 C 29.460938 19.71875 13.875 30.015625 6.238281 45.007812 C 3.058594 51.300781 1.277344 58.351562 1.277344 65.851562 C 1.277344 91.332031 21.953125 111.980469 47.464844 111.980469 C 47.65625 111.980469 47.84375 111.980469 48.035156 111.980469 C 52.808594 148.390625 83.851562 176.476562 121.515625 176.476562 C 145.371094 176.476562 166.621094 165.164062 180.105469 147.628906 C 184.179688 148.328125 188.3125 148.644531 192.574219 148.644531 C 218.660156 148.644531 241.5625 135.175781 254.730469 114.839844 C 258.484375 115.859375 262.492188 116.367188 266.5625 116.367188 C 291.117188 116.367188 311.222656 97.238281 312.683594 73.03125 C 312.683594 72.140625 312.75 71.25 312.75 70.296875 Z M 312.75 70.296875 " fill-opacity="1" fill-rule="nonzero"/></g></g></g></g></g><g clip-path="url(#clip-43)"><g clip-path="url(#clip-44)"><g clip-path="url(#clip-45)"><path fill="rgb(100%, 100%, 100%)" d="M 136.003906 110.519531 C 133.273438 130.832031 114.609375 145.085938 94.3125 142.355469 C 93.605469 142.257812 92.894531 142.164062 92.144531 142.011719 C 88.128906 141.214844 84.347656 139.828125 80.949219 137.875 C 78.367188 140.210938 75.613281 142.316406 72.679688 144.191406 C 61.296875 151.429688 47.386719 154.871094 32.960938 152.929688 C 20.304688 151.226562 9.101562 145.648438 0.402344 137.515625 C -2.5625 138.097656 -5.59375 138.410156 -8.644531 138.515625 C -11.960938 138.636719 -15.285156 138.449219 -18.675781 137.992188 C -29.304688 136.5625 -38.894531 132.382812 -46.890625 126.308594 C -50.347656 123.675781 -53.449219 120.679688 -56.25 117.363281 C -63.265625 121.628906 -71.730469 123.636719 -80.488281 122.460938 C -94.8125 120.53125 -106.109375 110.660156 -110.574219 97.886719 C -112.429688 92.53125 -113.09375 86.71875 -112.289062 80.738281 C -109.554688 60.425781 -90.890625 46.171875 -70.59375 48.902344 C -70.441406 48.921875 -70.292969 48.945312 -70.140625 48.964844 C -62.441406 20.449219 -34.726562 1.378906 -4.761719 5.40625 C 14.21875 7.960938 29.910156 19.25 38.761719 34.675781 C 42.074219 34.554688 45.398438 34.742188 48.792969 35.199219 C 69.542969 37.988281 86.320312 51.179688 94.617188 68.800781 C 97.714844 68.390625 100.957031 68.414062 104.195312 68.847656 C 123.734375 71.476562 137.679688 88.875 136.246094 108.332031 C 136.152344 109.042969 136.109375 109.757812 136.003906 110.519531 Z M 136.003906 110.519531 " fill-opacity="1" fill-rule="nonzero"/></g></g></g><g clip-path="url(#clip-46)"><g clip-path="url(#clip-47)"><g clip-path="url(#clip-48)"><path fill="rgb(100%, 100%, 100%)" d="M 424.90625 138.476562 C 422.5625 118.113281 437.15625 99.714844 457.5 97.375 C 458.210938 97.292969 458.921875 97.210938 459.6875 97.171875 C 463.777344 96.960938 467.78125 97.375 471.554688 98.433594 C 473.484375 95.535156 475.636719 92.816406 478.019531 90.28125 C 487.273438 80.46875 499.914062 73.714844 514.375 72.050781 C 527.058594 70.589844 539.292969 73.25 549.722656 78.996094 C 552.453125 77.703125 555.3125 76.652344 558.246094 75.800781 C 561.429688 74.871094 564.699219 74.238281 568.097656 73.84375 C 578.753906 72.621094 589.074219 74.3125 598.320312 78.242188 C 602.316406 79.941406 606.0625 82.082031 609.589844 84.609375 C 615.34375 78.753906 623.054688 74.726562 631.832031 73.714844 C 646.1875 72.066406 659.566406 78.859375 667.035156 90.144531 C 670.148438 94.878906 672.21875 100.351562 672.90625 106.34375 C 675.25 126.707031 660.660156 145.109375 640.3125 147.449219 C 640.160156 147.464844 640.007812 147.484375 639.855469 147.5 C 639.398438 177.035156 617.21875 202.328125 587.183594 205.785156 C 568.15625 207.972656 550.171875 200.882812 537.804688 188.105469 C 534.621094 189.039062 531.351562 189.671875 527.953125 190.0625 C 507.148438 192.457031 487.644531 183.792969 475.273438 168.75 C 472.375 169.90625 469.222656 170.679688 465.976562 171.054688 C 446.390625 173.308594 428.601562 159.867188 425.207031 140.65625 C 425.125 139.945312 424.992188 139.238281 424.90625 138.476562 Z M 424.90625 138.476562 " fill-opacity="1" fill-rule="nonzero"/></g></g></g><g clip-path="url(#clip-49)"><g clip-path="url(#clip-50)"><g clip-path="url(#clip-51)"><path fill="rgb(100%, 100%, 100%)" d="M 332.628906 178.285156 C 329.894531 198.597656 311.230469 212.851562 290.933594 210.121094 C 290.226562 210.023438 289.519531 209.929688 288.765625 209.777344 C 284.75 208.980469 280.96875 207.59375 277.570312 205.640625 C 274.992188 207.976562 272.234375 210.082031 269.300781 211.957031 C 257.917969 219.195312 244.007812 222.636719 229.582031 220.695312 C 216.925781 218.992188 205.722656 213.414062 197.027344 205.28125 C 194.0625 205.863281 191.03125 206.175781 187.976562 206.28125 C 184.660156 206.402344 181.335938 206.214844 177.945312 205.757812 C 167.316406 204.328125 157.726562 200.148438 149.730469 194.074219 C 146.273438 191.441406 143.171875 188.445312 140.371094 185.128906 C 133.355469 189.394531 124.890625 191.402344 116.136719 190.226562 C 101.8125 188.296875 90.515625 178.425781 86.046875 165.652344 C 84.191406 160.296875 83.53125 154.484375 84.335938 148.503906 C 87.066406 128.191406 105.730469 113.9375 126.027344 116.667969 C 126.179688 116.6875 126.332031 116.710938 126.484375 116.730469 C 134.183594 88.214844 161.894531 69.144531 191.859375 73.171875 C 210.839844 75.726562 226.53125 87.015625 235.382812 102.441406 C 238.699219 102.320312 242.023438 102.507812 245.414062 102.964844 C 266.167969 105.753906 282.945312 118.945312 291.242188 136.566406 C 294.335938 136.15625 297.578125 136.179688 300.820312 136.613281 C 320.355469 139.242188 334.300781 156.640625 332.871094 176.097656 C 332.773438 176.808594 332.730469 177.523438 332.628906 178.285156 Z M 332.628906 178.285156 " fill-opacity="1" fill-rule="nonzero"/></g></g></g><g clip-path="url(#clip-52)"><g clip-path="url(#clip-53)"><g clip-path="url(#clip-54)"><path fill="rgb(100%, 100%, 100%)" d="M 226.386719 127.0625 C 226 106.570312 242.28125 89.648438 262.753906 89.257812 C 263.46875 89.246094 264.183594 89.230469 264.953125 89.269531 C 269.042969 89.445312 272.992188 90.242188 276.644531 91.652344 C 278.839844 88.953125 281.246094 86.453125 283.859375 84.15625 C 294.007812 75.273438 307.234375 69.753906 321.789062 69.480469 C 334.554688 69.238281 346.476562 73.050781 356.308594 79.765625 C 359.152344 78.742188 362.097656 77.96875 365.101562 77.402344 C 368.359375 76.777344 371.671875 76.457031 375.09375 76.394531 C 385.816406 76.191406 395.929688 78.859375 404.757812 83.652344 C 408.578125 85.726562 412.097656 88.21875 415.367188 91.070312 C 421.652344 85.785156 429.714844 82.515625 438.546875 82.347656 C 453 82.074219 465.664062 90.117188 472.023438 102.058594 C 474.671875 107.070312 476.207031 112.71875 476.324219 118.746094 C 476.710938 139.242188 460.429688 156.164062 439.953125 156.554688 C 439.800781 156.554688 439.648438 156.558594 439.496094 156.5625 C 436.21875 185.917969 411.730469 208.976562 381.5 209.550781 C 362.351562 209.914062 345.125 201.140625 334.03125 187.242188 C 330.773438 187.863281 327.460938 188.183594 324.039062 188.25 C 303.105469 188.644531 284.515625 178.160156 273.636719 162.007812 C 270.636719 162.882812 267.429688 163.351562 264.160156 163.414062 C 244.453125 163.785156 228.023438 148.710938 226.480469 129.261719 C 226.464844 128.546875 226.402344 127.832031 226.386719 127.0625 Z M 226.386719 127.0625 " fill-opacity="1" fill-rule="nonzero"/></g></g></g><g clip-path="url(#clip-55)"><g clip-path="url(#clip-56)"><g clip-path="url(#clip-57)"><path fill="rgb(100%, 100%, 100%)" d="M 669.988281 112.886719 C 672.921875 133.171875 691.730469 147.234375 711.996094 144.300781 C 712.707031 144.199219 713.414062 144.097656 714.164062 143.9375 C 718.171875 143.097656 721.9375 141.675781 725.316406 139.691406 C 727.917969 142 730.695312 144.074219 733.648438 145.921875 C 745.101562 153.042969 759.046875 156.347656 773.453125 154.261719 C 786.089844 152.433594 797.238281 146.742188 805.855469 138.523438 C 808.824219 139.074219 811.859375 139.359375 814.914062 139.433594 C 818.226562 139.519531 821.550781 139.296875 824.9375 138.808594 C 835.550781 137.273438 845.097656 133 853.03125 126.839844 C 856.464844 124.175781 859.535156 121.148438 862.304688 117.804688 C 869.359375 122 877.84375 123.921875 886.589844 122.65625 C 900.894531 120.589844 912.089844 110.601562 916.429688 97.785156 C 918.230469 92.410156 918.835938 86.589844 917.972656 80.621094 C 915.035156 60.335938 896.230469 46.273438 875.960938 49.203125 C 875.808594 49.226562 875.65625 49.246094 875.507812 49.269531 C 867.523438 20.832031 839.621094 2.039062 809.699219 6.371094 C 790.742188 9.113281 775.164062 20.558594 766.46875 36.070312 C 763.152344 35.984375 759.832031 36.207031 756.445312 36.695312 C 735.71875 39.695312 719.074219 53.050781 710.953125 70.753906 C 707.855469 70.375 704.613281 70.429688 701.378906 70.898438 C 681.867188 73.722656 668.097656 91.261719 669.722656 110.703125 C 669.824219 111.410156 669.878906 112.125 669.988281 112.886719 Z M 669.988281 112.886719 " fill-opacity="1" fill-rule="nonzero"/></g></g></g><g clip-path="url(#clip-58)"><g clip-path="url(#clip-59)"><g clip-path="url(#clip-60)"><path fill="rgb(100%, 94.898987%, 78.039551%)" d="M 831.542969 37.054688 C 831.199219 54.582031 825.609375 62.605469 823.539062 65.015625 C 823.207031 65.390625 823.347656 65.929688 823.820312 66.09375 C 826.753906 67.144531 835.566406 71.445312 844.503906 86.542969 C 844.84375 87.125 845.734375 86.890625 845.746094 86.214844 C 846.003906 68.714844 851.855469 60.617188 854.019531 58.183594 C 854.347656 57.8125 854.195312 57.226562 853.726562 57.0625 C 850.660156 56.046875 841.578125 51.816406 832.777344 36.683594 C 832.433594 36.101562 831.546875 36.335938 831.542969 37.054688 Z M 831.542969 37.054688 " fill-opacity="1" fill-rule="nonzero"/></g></g></g><g clip-path="url(#clip-61)"><g clip-path="url(#clip-62)"><g clip-path="url(#clip-63)"><path fill="rgb(100%, 94.898987%, 78.039551%)" d="M 359.300781 60.585938 C 354.851562 73.351562 348.859375 77.894531 346.769531 79.164062 C 346.441406 79.359375 346.414062 79.785156 346.71875 80.019531 C 348.605469 81.496094 354 86.765625 356.90625 99.976562 C 357.015625 100.484375 357.71875 100.527344 357.890625 100.039062 C 362.265625 87.269531 368.472656 82.738281 370.628906 81.472656 C 370.960938 81.28125 370.988281 80.816406 370.683594 80.582031 C 368.691406 79.101562 363.082031 73.816406 360.285156 60.613281 C 360.175781 60.105469 359.472656 60.0625 359.300781 60.585938 Z M 359.300781 60.585938 " fill-opacity="1" fill-rule="nonzero"/></g></g></g><g clip-path="url(#clip-64)"><g clip-path="url(#clip-65)"><g clip-path="url(#clip-66)"><path fill="rgb(77.249146%, 67.83905%, 92.158508%)" d="M 182.808594 61.792969 L 190.75 71.925781 L 203.511719 71.101562 L 196.433594 81.824219 L 201.203125 93.800781 L 188.882812 90.292969 L 179.058594 98.523438 L 178.519531 85.640625 L 167.695312 78.738281 L 179.679688 74.285156 Z M 182.808594 61.792969 " fill-opacity="1" fill-rule="nonzero"/><path fill="rgb(77.249146%, 67.83905%, 92.158508%)" d="M 182.699219 61.703125 L 190.648438 71.835938 L 203.410156 71.011719 L 196.332031 81.730469 L 201.09375 93.710938 L 188.773438 90.203125 L 178.953125 98.429688 L 178.417969 85.546875 L 167.585938 78.648438 L 179.570312 74.195312 Z M 182.699219 61.703125 " fill-opacity="1" fill-rule="nonzero"/><path fill="rgb(77.249146%, 67.83905%, 92.158508%)" d="M 182.699219 61.703125 L 190.648438 71.835938 L 203.410156 71.011719 L 196.332031 81.730469 L 201.09375 93.710938 L 188.773438 90.203125 L 178.953125 98.429688 L 178.417969 85.546875 L 167.585938 78.648438 L 179.570312 74.195312 Z M 182.699219 61.703125 " fill-opacity="1" fill-rule="nonzero"/><path fill="rgb(77.249146%, 67.83905%, 92.158508%)" d="M 182.699219 61.703125 L 190.648438 71.835938 L 203.410156 71.011719 L 196.332031 81.730469 L 201.09375 93.710938 L 188.773438 90.203125 L 178.953125 98.429688 L 178.417969 85.546875 L 167.585938 78.648438 L 179.570312 74.195312 Z M 182.699219 61.703125 " fill-opacity="1" fill-rule="nonzero"/></g></g></g><g clip-path="url(#clip-67)"><g clip-path="url(#clip-68)"><g clip-path="url(#clip-69)"><path fill="rgb(77.249146%, 67.83905%, 92.158508%)" d="M 721.570312 51.90625 L 725.175781 62.84375 L 736.199219 66.054688 L 726.945312 72.890625 L 727.308594 84.410156 L 717.980469 77.699219 L 707.167969 81.605469 L 710.65625 70.625 L 703.628906 61.515625 L 715.109375 61.441406 Z M 721.570312 51.90625 " fill-opacity="1" fill-rule="nonzero"/><path fill="rgb(77.249146%, 67.83905%, 92.158508%)" d="M 721.507812 51.796875 L 725.117188 62.734375 L 736.144531 65.945312 L 726.886719 72.785156 L 727.242188 84.300781 L 717.917969 77.589844 L 707.109375 81.496094 L 710.597656 70.515625 L 703.5625 61.410156 L 715.046875 61.332031 Z M 721.507812 51.796875 " fill-opacity="1" fill-rule="nonzero"/><path fill="rgb(77.249146%, 67.83905%, 92.158508%)" d="M 721.507812 51.796875 L 725.117188 62.734375 L 736.144531 65.945312 L 726.886719 72.785156 L 727.242188 84.300781 L 717.917969 77.589844 L 707.109375 81.496094 L 710.597656 70.515625 L 703.5625 61.410156 L 715.046875 61.332031 Z M 721.507812 51.796875 " fill-opacity="1" fill-rule="nonzero"/><path fill="rgb(77.249146%, 67.83905%, 92.158508%)" d="M 721.507812 51.796875 L 725.117188 62.734375 L 736.144531 65.945312 L 726.886719 72.785156 L 727.242188 84.300781 L 717.917969 77.589844 L 707.109375 81.496094 L 710.597656 70.515625 L 703.5625 61.410156 L 715.046875 61.332031 Z M 721.507812 51.796875 " fill-opacity="1" fill-rule="nonzero"/></g></g></g><g clip-path="url(#clip-70)"><g clip-path="url(#clip-71)"><g clip-path="url(#clip-72)"><path fill="rgb(98.039246%, 56.858826%, 83.139038%)" d="M 66.878906 29.96875 C 68.5 24.074219 65.042969 17.984375 59.160156 16.367188 C 55.589844 15.386719 51.953125 16.285156 49.277344 18.453125 C 48.085938 15.222656 45.421875 12.589844 41.851562 11.605469 C 35.96875 9.988281 29.886719 13.453125 28.265625 19.347656 C 28.035156 20.183594 27.917969 21.019531 27.886719 21.851562 C 26.832031 31.460938 34.378906 43.984375 40.96875 48.664062 C 49.023438 48.011719 61.914062 41.109375 65.921875 32.3125 C 66.320312 31.582031 66.648438 30.804688 66.878906 29.96875 Z M 66.878906 29.96875 " fill-opacity="1" fill-rule="nonzero"/></g></g></g><g clip-path="url(#clip-73)"><g clip-path="url(#clip-74)"><g clip-path="url(#clip-75)"><path fill="rgb(98.039246%, 56.858826%, 83.139038%)" d="M 583.601562 67.539062 C 582.941406 63.003906 578.691406 59.867188 574.109375 60.53125 C 571.324219 60.9375 569.066406 62.652344 567.863281 64.949219 C 566.054688 63.089844 563.402344 62.089844 560.617188 62.492188 C 556.035156 63.160156 552.851562 67.375 553.511719 71.914062 C 553.605469 72.554688 553.777344 73.167969 554.003906 73.746094 C 556.1875 80.664062 565.238281 86.984375 571.242188 88.207031 C 576.648438 85.324219 583.527344 76.691406 583.648438 69.441406 C 583.703125 68.820312 583.695312 68.183594 583.601562 67.539062 Z M 583.601562 67.539062 " fill-opacity="1" fill-rule="nonzero"/></g></g></g><g mask="url(#mask-7)"><g transform="matrix(1, 0, 0, 1, 0, 148)"><g id="source-26" clip-path="url(#clip-79)"><g clip-path="url(#clip-76)"><g clip-path="url(#clip-77)"><g clip-path="url(#clip-78)"><path fill="rgb(100%, 100%, 100%)" d="M -28.125 66.234375 C -27.003906 78.816406 -15.921875 88.105469 -3.371094 86.988281 C -2.933594 86.949219 -2.492188 86.910156 -2.027344 86.835938 C 0.464844 86.453125 2.824219 85.707031 4.96875 84.597656 C 6.488281 86.105469 8.125 87.480469 9.878906 88.714844 C 16.675781 93.484375 25.132812 95.988281 34.054688 95.191406 C 41.878906 94.492188 48.921875 91.367188 54.488281 86.601562 C 56.296875 87.042969 58.152344 87.320312 60.023438 87.46875 C 62.058594 87.632812 64.109375 87.609375 66.207031 87.421875 C 72.777344 86.835938 78.789062 84.53125 83.867188 81.007812 C 86.066406 79.484375 88.054688 77.726562 89.867188 75.761719 C 94.0625 78.582031 99.210938 80.050781 104.625 79.570312 C 113.484375 78.777344 120.699219 73.011719 123.796875 65.273438 C 125.085938 62.027344 125.648438 58.46875 125.320312 54.765625 C 124.199219 42.183594 113.117188 32.894531 100.5625 34.011719 C 100.46875 34.023438 100.375 34.03125 100.28125 34.039062 C 96.332031 16.269531 79.820312 3.765625 61.289062 5.417969 C 49.550781 6.464844 39.59375 12.980469 33.730469 22.234375 C 31.699219 22.066406 29.648438 22.089844 27.550781 22.277344 C 14.71875 23.421875 4.042969 31.078125 -1.539062 41.695312 C -3.433594 41.359375 -5.425781 41.285156 -7.429688 41.460938 C -19.511719 42.539062 -28.5625 52.867188 -28.214844 64.882812 C -28.175781 65.324219 -28.167969 65.765625 -28.125 66.234375 Z M -28.125 66.234375 " fill-opacity="1" fill-rule="nonzero"/></g></g></g></g></g></g><g mask="url(#mask-8)"><g transform="matrix(1, 0, 0, 1, 77, 101)"><g id="source-29" clip-path="url(#clip-83)"><g clip-path="url(#clip-80)"><g clip-path="url(#clip-81)"><g clip-path="url(#clip-82)"><path fill="rgb(100%, 100%, 100%)" d="M 17.6875 46.925781 C 11.722656 58.0625 15.894531 71.90625 27 77.859375 C 27.390625 78.066406 27.777344 78.273438 28.207031 78.46875 C 30.5 79.515625 32.882812 80.1875 35.28125 80.433594 C 35.726562 82.53125 36.34375 84.578125 37.128906 86.570312 C 40.195312 94.289062 45.894531 101.019531 53.789062 105.25 C 60.714844 108.957031 68.316406 110.207031 75.589844 109.277344 C 76.855469 110.636719 78.257812 111.886719 79.742188 113.039062 C 81.351562 114.292969 83.078125 115.398438 84.933594 116.390625 C 90.75 119.507812 97.039062 120.875 103.21875 120.71875 C 105.894531 120.652344 108.523438 120.269531 111.113281 119.625 C 113.074219 124.28125 116.574219 128.335938 121.367188 130.902344 C 129.207031 135.101562 138.402344 134.238281 145.234375 129.464844 C 148.09375 127.457031 150.519531 124.792969 152.273438 121.515625 C 158.238281 110.382812 154.070312 96.535156 142.960938 90.585938 C 142.878906 90.539062 142.792969 90.496094 142.710938 90.453125 C 149.15625 73.429688 142.210938 53.914062 125.8125 45.128906 C 115.421875 39.566406 103.523438 39.554688 93.546875 44.070312 C 91.9375 42.816406 90.210938 41.714844 88.355469 40.71875 C 76.996094 34.636719 63.871094 35.179688 53.378906 40.996094 C 51.980469 39.675781 50.355469 38.519531 48.582031 37.566406 C 37.886719 31.839844 24.65625 35.511719 18.355469 45.746094 C 18.144531 46.136719 17.910156 46.511719 17.6875 46.925781 Z M 17.6875 46.925781 " fill-opacity="1" fill-rule="nonzero"/></g></g></g></g></g></g><g clip-path="url(#clip-84)"><g clip-path="url(#clip-85)"><g clip-path="url(#clip-86)"><path fill="rgb(100%, 100%, 100%)" d="M -45.222656 118.511719 C -52.640625 132.941406 -46.917969 150.664062 -32.445312 158.101562 C -31.9375 158.363281 -31.433594 158.621094 -30.875 158.863281 C -27.894531 160.167969 -24.800781 160.984375 -21.699219 161.257812 C -21.074219 163.945312 -20.230469 166.5625 -19.167969 169.109375 C -15.019531 178.972656 -7.503906 187.519531 2.785156 192.804688 C 11.808594 197.441406 21.640625 198.898438 30.996094 197.566406 C 32.664062 199.289062 34.5 200.867188 36.445312 202.320312 C 38.550781 203.902344 40.804688 205.289062 43.222656 206.53125 C 50.804688 210.425781 58.949219 212.0625 66.914062 211.742188 C 70.363281 211.605469 73.742188 211.066406 77.070312 210.183594 C 79.714844 216.136719 84.324219 221.28125 90.570312 224.488281 C 100.78125 229.734375 112.621094 228.449219 121.316406 222.179688 C 124.949219 219.546875 128.015625 216.070312 130.195312 211.824219 C 137.609375 197.390625 131.890625 179.667969 117.414062 172.234375 C 117.308594 172.175781 117.199219 172.121094 117.089844 172.066406 C 124.976562 150.054688 115.539062 125.097656 94.167969 114.121094 C 80.632812 107.167969 65.289062 107.378906 52.53125 113.378906 C 50.425781 111.796875 48.171875 110.410156 45.753906 109.167969 C 30.957031 101.566406 14.042969 102.519531 0.65625 110.195312 C -1.179688 108.527344 -3.304688 107.070312 -5.613281 105.882812 C -19.546875 98.726562 -36.519531 103.699219 -44.394531 116.984375 C -44.652344 117.488281 -44.945312 117.972656 -45.222656 118.511719 Z M -45.222656 118.511719 " fill-opacity="1" fill-rule="nonzero"/></g></g></g><g clip-path="url(#clip-87)"><g clip-path="url(#clip-88)"><g clip-path="url(#clip-89)"><path fill="rgb(100%, 94.898987%, 78.039551%)" d="M 73.257812 192.640625 C 70.046875 201.257812 65.898438 204.261719 64.453125 205.097656 C 64.226562 205.226562 64.203125 205.515625 64.40625 205.679688 C 65.675781 206.710938 69.28125 210.371094 71.082031 219.394531 C 71.148438 219.742188 71.628906 219.78125 71.75 219.449219 C 74.914062 210.828125 79.207031 207.835938 80.695312 207.003906 C 80.925781 206.875 80.949219 206.5625 80.746094 206.398438 C 79.40625 205.363281 75.65625 201.691406 73.929688 192.671875 C 73.863281 192.324219 73.382812 192.285156 73.257812 192.640625 Z M 73.257812 192.640625 " fill-opacity="1" fill-rule="nonzero"/></g></g></g><g clip-path="url(#clip-90)"><g clip-path="url(#clip-91)"><g clip-path="url(#clip-92)"><path fill="rgb(100%, 94.898987%, 78.039551%)" d="M 48.402344 192.308594 C 43.023438 206.476562 36.042969 211.40625 33.617188 212.777344 C 33.234375 212.984375 33.195312 213.464844 33.539062 213.734375 C 35.675781 215.429688 41.765625 221.464844 44.816406 236.324219 C 44.933594 236.894531 45.742188 236.960938 45.949219 236.414062 C 51.246094 222.238281 58.46875 217.328125 60.976562 215.96875 C 61.359375 215.757812 61.398438 215.238281 61.054688 214.96875 C 58.800781 213.261719 52.46875 207.207031 49.535156 192.359375 C 49.421875 191.789062 48.613281 191.722656 48.402344 192.308594 Z M 48.402344 192.308594 " fill-opacity="1" fill-rule="nonzero"/></g></g></g><g clip-path="url(#clip-93)"><g clip-path="url(#clip-94)"><g clip-path="url(#clip-95)"><path fill="rgb(100%, 100%, 100%)" d="M 202.851562 175.433594 C 200.730469 191.519531 212.085938 206.277344 228.21875 208.402344 C 228.78125 208.476562 229.347656 208.550781 229.953125 208.589844 C 233.199219 208.816406 236.386719 208.542969 239.398438 207.753906 C 240.890625 210.074219 242.570312 212.253906 244.429688 214.292969 C 251.65625 222.183594 261.613281 227.699219 273.078125 229.210938 C 283.136719 230.535156 292.886719 228.597656 301.246094 224.1875 C 303.398438 225.25 305.65625 226.117188 307.976562 226.832031 C 310.496094 227.613281 313.082031 228.15625 315.777344 228.511719 C 324.226562 229.625 332.449219 228.425781 339.839844 225.441406 C 343.039062 224.148438 346.039062 222.503906 348.875 220.550781 C 353.371094 225.265625 359.445312 228.554688 366.40625 229.472656 C 377.789062 230.972656 388.503906 225.773438 394.578125 216.941406 C 397.113281 213.234375 398.828125 208.929688 399.449219 204.199219 C 401.570312 188.113281 390.214844 173.351562 374.082031 171.226562 C 373.960938 171.210938 373.839844 171.195312 373.71875 171.179688 C 373.730469 147.796875 356.433594 127.480469 332.617188 124.339844 C 317.53125 122.351562 303.152344 127.722656 293.164062 137.667969 C 290.648438 136.886719 288.058594 136.34375 285.363281 135.988281 C 268.871094 133.816406 253.265625 140.410156 243.246094 152.148438 C 240.957031 151.195312 238.464844 150.539062 235.890625 150.199219 C 220.359375 148.152344 206.058594 158.550781 203.117188 173.714844 C 203.042969 174.273438 202.929688 174.832031 202.851562 175.433594 Z M 202.851562 175.433594 " fill-opacity="1" fill-rule="nonzero"/></g></g></g><g mask="url(#mask-9)"><g transform="matrix(1, 0, 0, 1, 277, 88)"><g id="source-32" clip-path="url(#clip-97)"><g clip-path="url(#clip-96)"><path fill="rgb(100%, 100%, 100%)" d="M 0.617188 82.816406 C 0.617188 102.632812 16.683594 118.695312 36.503906 118.695312 C 37.195312 118.695312 37.886719 118.695312 38.628906 118.644531 C 42.582031 118.398438 46.390625 117.558594 49.898438 116.125 C 52.074219 118.695312 54.445312 121.066406 57.015625 123.242188 C 67 131.644531 79.902344 136.734375 93.988281 136.734375 C 106.34375 136.734375 117.8125 132.832031 127.203125 126.160156 C 129.972656 127.097656 132.839844 127.789062 135.753906 128.285156 C 138.917969 128.828125 142.132812 129.074219 145.441406 129.074219 C 155.824219 129.074219 165.558594 126.304688 174.011719 121.511719 C 177.667969 119.4375 181.03125 116.964844 184.144531 114.148438 C 190.324219 119.140625 198.183594 122.15625 206.734375 122.15625 C 220.722656 122.15625 232.832031 114.148438 238.761719 102.484375 C 241.234375 97.59375 242.617188 92.109375 242.617188 86.277344 C 242.617188 66.457031 226.554688 50.394531 206.734375 50.394531 C 206.585938 50.394531 206.4375 50.394531 206.289062 50.394531 C 202.582031 22.078125 178.460938 0.234375 149.199219 0.234375 C 130.664062 0.234375 114.15625 9.03125 103.675781 22.671875 C 100.511719 22.128906 97.300781 21.878906 93.988281 21.878906 C 73.722656 21.878906 55.929688 32.359375 45.699219 48.171875 C 42.78125 47.382812 39.667969 46.988281 36.503906 46.988281 C 17.425781 46.988281 1.804688 61.863281 0.667969 80.691406 C 0.667969 81.382812 0.617188 82.074219 0.617188 82.816406 Z M 0.617188 82.816406 " fill-opacity="1" fill-rule="nonzero"/></g></g></g></g><g mask="url(#mask-10)"><g transform="matrix(1, 0, 0, 1, 359, 85)"><g id="source-35" clip-path="url(#clip-99)"><g clip-path="url(#clip-98)"><path fill="rgb(100%, 100%, 100%)" d="M 0.523438 82.890625 C 0.523438 102.707031 16.589844 118.769531 36.410156 118.769531 C 37.101562 118.769531 37.792969 118.769531 38.535156 118.71875 C 42.488281 118.472656 46.296875 117.632812 49.804688 116.199219 C 51.980469 118.769531 54.351562 121.140625 56.921875 123.316406 C 66.90625 131.714844 79.808594 136.808594 93.894531 136.808594 C 106.25 136.808594 117.71875 132.902344 127.109375 126.230469 C 129.878906 127.171875 132.746094 127.863281 135.660156 128.355469 C 138.824219 128.898438 142.035156 129.148438 145.347656 129.148438 C 155.730469 129.148438 165.464844 126.378906 173.917969 121.585938 C 177.574219 119.511719 180.9375 117.039062 184.050781 114.222656 C 190.230469 119.214844 198.089844 122.226562 206.640625 122.226562 C 220.628906 122.226562 232.738281 114.222656 238.667969 102.558594 C 241.140625 97.664062 242.523438 92.179688 242.523438 86.347656 C 242.523438 66.53125 226.460938 50.46875 206.640625 50.46875 C 206.492188 50.46875 206.34375 50.46875 206.195312 50.46875 C 202.488281 22.152344 178.367188 0.308594 149.105469 0.308594 C 130.570312 0.308594 114.0625 9.105469 103.582031 22.742188 C 100.417969 22.199219 97.207031 21.953125 93.894531 21.953125 C 73.628906 21.953125 55.835938 32.429688 45.601562 48.246094 C 42.6875 47.453125 39.574219 47.058594 36.410156 47.058594 C 17.332031 47.058594 1.710938 61.933594 0.574219 80.765625 C 0.574219 81.457031 0.523438 82.148438 0.523438 82.890625 Z M 0.523438 82.890625 " fill-opacity="1" fill-rule="nonzero"/></g></g></g></g><g clip-path="url(#clip-100)"><g clip-path="url(#clip-101)"><g clip-path="url(#clip-102)"><path fill="rgb(77.249146%, 67.83905%, 92.158508%)" d="M 669.734375 119.597656 L 675.050781 127.929688 L 684.957031 128.285156 L 678.640625 135.910156 L 681.363281 145.410156 L 672.140625 141.785156 L 663.90625 147.300781 L 664.523438 137.441406 L 656.722656 131.347656 L 666.324219 128.878906 Z M 669.734375 119.597656 " fill-opacity="1" fill-rule="nonzero"/><path fill="rgb(77.249146%, 67.83905%, 92.158508%)" d="M 669.660156 119.519531 L 674.980469 127.851562 L 684.886719 128.207031 L 678.570312 135.832031 L 681.285156 145.332031 L 672.066406 141.707031 L 663.835938 147.222656 L 664.449219 137.363281 L 656.644531 131.269531 L 666.246094 128.800781 Z M 669.660156 119.519531 " fill-opacity="1" fill-rule="nonzero"/><path fill="rgb(77.249146%, 67.83905%, 92.158508%)" d="M 669.660156 119.519531 L 674.980469 127.851562 L 684.886719 128.207031 L 678.570312 135.832031 L 681.285156 145.332031 L 672.066406 141.707031 L 663.835938 147.222656 L 664.449219 137.363281 L 656.644531 131.269531 L 666.246094 128.800781 Z M 669.660156 119.519531 " fill-opacity="1" fill-rule="nonzero"/><path fill="rgb(77.249146%, 67.83905%, 92.158508%)" d="M 669.660156 119.519531 L 674.980469 127.851562 L 684.886719 128.207031 L 678.570312 135.832031 L 681.285156 145.332031 L 672.066406 141.707031 L 663.835938 147.222656 L 664.449219 137.363281 L 656.644531 131.269531 L 666.246094 128.800781 Z M 669.660156 119.519531 " fill-opacity="1" fill-rule="nonzero"/></g></g></g><g clip-path="url(#clip-103)"><g clip-path="url(#clip-104)"><g clip-path="url(#clip-105)"><path fill="rgb(100%, 100%, 100%)" d="M 557.683594 192.113281 C 554.652344 197.777344 551.5 199.464844 550.421875 199.90625 C 550.253906 199.976562 550.210938 200.175781 550.335938 200.304688 C 551.113281 201.136719 553.269531 204.007812 553.664062 210.421875 C 553.679688 210.667969 554.007812 210.742188 554.125 210.523438 C 557.121094 204.855469 560.371094 203.1875 561.480469 202.75 C 561.652344 202.683594 561.699219 202.46875 561.574219 202.335938 C 560.742188 201.496094 558.492188 198.601562 558.144531 192.199219 C 558.128906 191.953125 557.800781 191.878906 557.683594 192.113281 Z M 557.683594 192.113281 " fill-opacity="1" fill-rule="nonzero"/></g></g></g><g clip-path="url(#clip-106)"><g clip-path="url(#clip-107)"><g clip-path="url(#clip-108)"><path fill="rgb(100%, 100%, 100%)" d="M 540.515625 189.550781 C 535.464844 198.851562 530.171875 201.609375 528.367188 202.324219 C 528.082031 202.433594 528.011719 202.761719 528.222656 202.980469 C 529.539062 204.355469 533.1875 209.101562 533.90625 219.667969 C 533.933594 220.074219 534.484375 220.195312 534.679688 219.839844 C 539.675781 210.527344 545.132812 207.808594 546.996094 207.101562 C 547.277344 206.992188 547.355469 206.636719 547.144531 206.417969 C 545.742188 205.023438 541.933594 200.242188 541.296875 189.695312 C 541.269531 189.289062 540.71875 189.167969 540.515625 189.550781 Z M 540.515625 189.550781 " fill-opacity="1" fill-rule="nonzero"/></g></g></g></svg>