<?xml version="1.0" encoding="UTF-8"?><svg xmlns="http://www.w3.org/2000/svg" xmlns:xlink="http://www.w3.org/1999/xlink" contentScriptType="text/ecmascript" width="858.75" zoomAndPan="magnify" contentStyleType="text/css" viewBox="0 0 858.75 225" height="225" preserveAspectRatio="xMidYMid meet" version="1.0"><defs><filter x="0%" y="0%" width="100%" xmlns:xlink="http://www.w3.org/1999/xlink" xlink:type="simple" xlink:actuate="onLoad" height="100%" id="filter-remove-color" xlink:show="other"><feColorMatrix values="0 0 0 0 1 0 0 0 0 1 0 0 0 0 1 0 0 0 1 0" color-interpolation-filters="sRGB"/></filter><clipPath id="clip-0"><path d="M 372 98 L 558 98 L 558 205 L 372 205 Z M 372 98 " clip-rule="nonzero"/></clipPath><clipPath id="clip-1"><path d="M 388.09375 71.332031 L 573.683594 117.503906 L 547.792969 221.582031 L 362.199219 175.410156 Z M 388.09375 71.332031 " clip-rule="nonzero"/></clipPath><clipPath id="clip-2"><path d="M 573.796875 117.53125 L 388.207031 71.359375 L 362.3125 175.4375 L 547.90625 221.609375 Z M 573.796875 117.53125 " clip-rule="nonzero"/></clipPath><mask id="mask-0"><g filter="url(#filter-remove-color)"><rect x="-85.875" width="1030.5" fill="rgb(0%, 0%, 0%)" y="-22.5" height="270" fill-opacity="0.498"/></g></mask><clipPath id="clip-3"><path d="M 0.191406 0.980469 L 233 0.980469 L 233 132.230469 L 0.191406 132.230469 Z M 0.191406 0.980469 " clip-rule="nonzero"/></clipPath><clipPath id="clip-4"><rect x="0" width="234" y="0" height="133"/></clipPath><clipPath id="clip-5"><path d="M 246 104 L 436 104 L 436 206 L 246 206 Z M 246 104 " clip-rule="nonzero"/></clipPath><clipPath id="clip-6"><path d="M 255.050781 89.113281 L 444.660156 114.097656 L 430.648438 220.429688 L 241.039062 195.441406 Z M 255.050781 89.113281 " clip-rule="nonzero"/></clipPath><clipPath id="clip-7"><path d="M 444.777344 114.113281 L 255.167969 89.125 L 241.15625 195.457031 L 430.765625 220.445312 Z M 444.777344 114.113281 " clip-rule="nonzero"/></clipPath><clipPath id="clip-8"><path d="M 0 8 L 163 8 L 163 152 L 0 152 Z M 0 8 " clip-rule="nonzero"/></clipPath><clipPath id="clip-9"><path d="M -65.871094 -3.320312 L 173.472656 28.863281 L 155.378906 163.402344 L -83.964844 131.21875 Z M -65.871094 -3.320312 " clip-rule="nonzero"/></clipPath><clipPath id="clip-10"><path d="M -65.871094 -3.320312 L 173.472656 28.863281 L 155.378906 163.402344 L -83.964844 131.21875 Z M -65.871094 -3.320312 " clip-rule="nonzero"/></clipPath><clipPath id="clip-11"><path d="M 91 97 L 282 97 L 282 202 L 91 202 Z M 91 97 " clip-rule="nonzero"/></clipPath><clipPath id="clip-12"><path d="M 276.363281 211.175781 L 85.820312 194.753906 L 95.027344 87.902344 L 285.570312 104.320312 Z M 276.363281 211.175781 " clip-rule="nonzero"/></clipPath><clipPath id="clip-13"><path d="M 85.703125 194.746094 L 276.25 211.164062 L 285.457031 104.308594 L 94.910156 87.890625 Z M 85.703125 194.746094 " clip-rule="nonzero"/></clipPath><mask id="mask-1"><g filter="url(#filter-remove-color)"><rect x="-85.875" width="1030.5" fill="rgb(0%, 0%, 0%)" y="-22.5" height="270" fill-opacity="0.498"/></g></mask><clipPath id="clip-14"><path d="M 0 44 L 170 44 L 170 175 L 0 175 Z M 0 44 " clip-rule="nonzero"/></clipPath><clipPath id="clip-15"><path d="M 30.542969 0.527344 L 201.328125 99.214844 L 145.792969 195.324219 L -24.992188 96.636719 Z M 30.542969 0.527344 " clip-rule="nonzero"/></clipPath><clipPath id="clip-16"><path d="M 201.15625 99.117188 L 30.371094 0.429688 L -25.164062 96.535156 L 145.621094 195.222656 Z M 201.15625 99.117188 " clip-rule="nonzero"/></clipPath><clipPath id="clip-17"><rect x="0" width="202" y="0" height="196"/></clipPath><mask id="mask-2"><g filter="url(#filter-remove-color)"><rect x="-85.875" width="1030.5" fill="rgb(0%, 0%, 0%)" y="-22.5" height="270" fill-opacity="0.498"/></g></mask><clipPath id="clip-18"><path d="M 0 4 L 253 4 L 253 150 L 0 150 Z M 0 4 " clip-rule="nonzero"/></clipPath><clipPath id="clip-19"><path d="M -4.796875 0.65625 L 255.367188 7.332031 L 251.613281 153.535156 L -8.550781 146.859375 Z M -4.796875 0.65625 " clip-rule="nonzero"/></clipPath><clipPath id="clip-20"><path d="M 255.015625 7.324219 L -5.148438 0.648438 L -8.902344 146.851562 L 251.265625 153.527344 Z M 255.015625 7.324219 " clip-rule="nonzero"/></clipPath><clipPath id="clip-21"><rect x="0" width="256" y="0" height="155"/></clipPath><clipPath id="clip-22"><path d="M 638 43 L 824 43 L 824 150 L 638 150 Z M 638 43 " clip-rule="nonzero"/></clipPath><clipPath id="clip-23"><path d="M 654.144531 16.355469 L 839.738281 62.527344 L 813.847656 166.605469 L 628.253906 120.433594 Z M 654.144531 16.355469 " clip-rule="nonzero"/></clipPath><clipPath id="clip-24"><path d="M 839.851562 62.554688 L 654.257812 16.382812 L 628.367188 120.460938 L 813.960938 166.632812 Z M 839.851562 62.554688 " clip-rule="nonzero"/></clipPath><clipPath id="clip-25"><path d="M 570 99 L 757 99 L 757 206 L 570 206 Z M 570 99 " clip-rule="nonzero"/></clipPath><clipPath id="clip-26"><path d="M 585.132812 74.535156 L 771.578125 117.675781 L 747.328125 222.464844 L 560.886719 179.320312 Z M 585.132812 74.535156 " clip-rule="nonzero"/></clipPath><clipPath id="clip-27"><path d="M 771.574219 117.675781 L 585.128906 74.53125 L 560.882812 179.320312 L 747.324219 222.460938 Z M 771.574219 117.675781 " clip-rule="nonzero"/></clipPath><clipPath id="clip-28"><path d="M 671 83 L 858.5 83 L 858.5 198 L 671 198 Z M 671 83 " clip-rule="nonzero"/></clipPath><clipPath id="clip-29"><path d="M 871.636719 177.941406 L 682.75 208.667969 L 665.480469 102.507812 L 854.367188 71.78125 Z M 871.636719 177.941406 " clip-rule="nonzero"/></clipPath><clipPath id="clip-30"><path d="M 682.753906 208.664062 L 871.640625 177.941406 L 854.371094 71.78125 L 665.484375 102.507812 Z M 682.753906 208.664062 " clip-rule="nonzero"/></clipPath><clipPath id="clip-31"><path d="M 444 74 L 620 74 L 620 195 L 444 195 Z M 444 74 " clip-rule="nonzero"/></clipPath><clipPath id="clip-32"><path d="M 587.191406 236.828125 L 416.335938 150.628906 L 464.78125 54.605469 L 635.636719 140.800781 Z M 587.191406 236.828125 " clip-rule="nonzero"/></clipPath><clipPath id="clip-33"><path d="M 416.335938 150.632812 L 587.195312 236.828125 L 635.640625 140.804688 L 464.78125 54.605469 Z M 416.335938 150.632812 " clip-rule="nonzero"/></clipPath><clipPath id="clip-34"><path d="M 815 54 L 858.5 54 L 858.5 167 L 815 167 Z M 815 54 " clip-rule="nonzero"/></clipPath><clipPath id="clip-35"><path d="M 807.40625 68.042969 L 997.488281 45.859375 L 1009.953125 152.6875 L 819.875 174.871094 Z M 807.40625 68.042969 " clip-rule="nonzero"/></clipPath><clipPath id="clip-36"><path d="M 997.484375 45.859375 L 807.402344 68.042969 L 819.871094 174.871094 L 1009.953125 152.6875 Z M 997.484375 45.859375 " clip-rule="nonzero"/></clipPath><clipPath id="clip-37"><path d="M 55 65 L 316 65 L 316 224.964844 L 55 224.964844 Z M 55 65 " clip-rule="nonzero"/></clipPath><mask id="mask-3"><g filter="url(#filter-remove-color)"><rect x="-85.875" width="1030.5" fill="rgb(0%, 0%, 0%)" y="-22.5" height="270" fill-opacity="0.498"/></g></mask><clipPath id="clip-38"><path d="M 6 14 L 252 14 L 252 148 L 6 148 Z M 6 14 " clip-rule="nonzero"/></clipPath><clipPath id="clip-39"><path d="M 260.054688 138.929688 L 13.59375 161.582031 L 0.894531 23.414062 L 247.355469 0.761719 Z M 260.054688 138.929688 " clip-rule="nonzero"/></clipPath><clipPath id="clip-40"><path d="M 260.054688 138.929688 L 13.59375 161.582031 L 0.894531 23.414062 L 247.355469 0.761719 Z M 260.054688 138.929688 " clip-rule="nonzero"/></clipPath><clipPath id="clip-41"><rect x="0" width="261" y="0" height="160"/></clipPath><mask id="mask-4"><g filter="url(#filter-remove-color)"><rect x="-85.875" width="1030.5" fill="rgb(0%, 0%, 0%)" y="-22.5" height="270" fill-opacity="0.498"/></g></mask><clipPath id="clip-42"><path d="M 5 13 L 228 13 L 228 134 L 5 134 Z M 5 13 " clip-rule="nonzero"/></clipPath><clipPath id="clip-43"><path d="M 234.84375 125.699219 L 12.28125 146.152344 L 0.820312 21.425781 L 223.378906 0.972656 Z M 234.84375 125.699219 " clip-rule="nonzero"/></clipPath><clipPath id="clip-44"><path d="M 234.84375 125.699219 L 12.28125 146.152344 L 0.820312 21.425781 L 223.378906 0.972656 Z M 234.84375 125.699219 " clip-rule="nonzero"/></clipPath><clipPath id="clip-45"><rect x="0" width="235" y="0" height="147"/></clipPath><clipPath id="clip-46"><path d="M 606 42 L 858.5 42 L 858.5 205 L 606 205 Z M 606 42 " clip-rule="nonzero"/></clipPath><mask id="mask-5"><g filter="url(#filter-remove-color)"><rect x="-85.875" width="1030.5" fill="rgb(0%, 0%, 0%)" y="-22.5" height="270" fill-opacity="0.498"/></g></mask><clipPath id="clip-47"><path d="M 5 14 L 251 14 L 251 149 L 5 149 Z M 5 14 " clip-rule="nonzero"/></clipPath><clipPath id="clip-48"><path d="M 258.742188 139.640625 L 12.679688 162.253906 L -0.0429688 23.84375 L 246.019531 1.230469 Z M 258.742188 139.640625 " clip-rule="nonzero"/></clipPath><clipPath id="clip-49"><path d="M 258.742188 139.640625 L 12.679688 162.253906 L -0.0429688 23.84375 L 246.019531 1.230469 Z M 258.742188 139.640625 " clip-rule="nonzero"/></clipPath><clipPath id="clip-50"><rect x="0" width="253" y="0" height="163"/></clipPath><clipPath id="clip-51"><path d="M 692 23 L 858.5 23 L 858.5 185 L 692 185 Z M 692 23 " clip-rule="nonzero"/></clipPath><mask id="mask-6"><g filter="url(#filter-remove-color)"><rect x="-85.875" width="1030.5" fill="rgb(0%, 0%, 0%)" y="-22.5" height="270" fill-opacity="0.498"/></g></mask><clipPath id="clip-52"><path d="M 5 14 L 166.5 14 L 166.5 148 L 5 148 Z M 5 14 " clip-rule="nonzero"/></clipPath><clipPath id="clip-53"><path d="M 258.996094 138.921875 L 12.933594 161.535156 L 0.214844 23.125 L 246.277344 0.511719 Z M 258.996094 138.921875 " clip-rule="nonzero"/></clipPath><clipPath id="clip-54"><path d="M 258.996094 138.921875 L 12.933594 161.535156 L 0.214844 23.125 L 246.277344 0.511719 Z M 258.996094 138.921875 " clip-rule="nonzero"/></clipPath><clipPath id="clip-55"><rect x="0" width="167" y="0" height="162"/></clipPath><clipPath id="clip-56"><path d="M 628 42 L 858.5 42 L 858.5 213 L 628 213 Z M 628 42 " clip-rule="nonzero"/></clipPath><mask id="mask-7"><g filter="url(#filter-remove-color)"><rect x="-85.875" width="1030.5" fill="rgb(0%, 0%, 0%)" y="-22.5" height="270" fill-opacity="0.498"/></g></mask><clipPath id="clip-57"><path d="M 0.191406 1.457031 L 230.5 1.457031 L 230.5 170.207031 L 0.191406 170.207031 Z M 0.191406 1.457031 " clip-rule="nonzero"/></clipPath><clipPath id="clip-58"><rect x="0" width="231" y="0" height="171"/></clipPath><clipPath id="clip-59"><path d="M 439 61 L 679 61 L 679 192 L 439 192 Z M 439 61 " clip-rule="nonzero"/></clipPath><clipPath id="clip-60"><path d="M 688.65625 180.171875 L 448.738281 207.773438 L 433.222656 72.914062 L 673.140625 45.3125 Z M 688.65625 180.171875 " clip-rule="nonzero"/></clipPath><clipPath id="clip-61"><path d="M 688.65625 180.171875 L 448.738281 207.773438 L 433.222656 72.914062 L 673.140625 45.3125 Z M 688.65625 180.171875 " clip-rule="nonzero"/></clipPath><clipPath id="clip-62"><path d="M 113 55 L 349 55 L 349 190 L 113 190 Z M 113 55 " clip-rule="nonzero"/></clipPath><clipPath id="clip-63"><path d="M 94.617188 77.925781 L 330.164062 24.628906 L 360.121094 157.03125 L 124.574219 210.328125 Z M 94.617188 77.925781 " clip-rule="nonzero"/></clipPath><clipPath id="clip-64"><path d="M 94.617188 77.925781 L 330.164062 24.628906 L 360.121094 157.03125 L 124.574219 210.328125 Z M 94.617188 77.925781 " clip-rule="nonzero"/></clipPath><clipPath id="clip-65"><path d="M 256 46 L 497 46 L 497 181 L 256 181 Z M 256 46 " clip-rule="nonzero"/></clipPath><clipPath id="clip-66"><path d="M 498.667969 179.054688 L 257.210938 183.632812 L 254.640625 47.90625 L 496.097656 43.328125 Z M 498.667969 179.054688 " clip-rule="nonzero"/></clipPath><clipPath id="clip-67"><path d="M 498.667969 179.054688 L 257.210938 183.632812 L 254.640625 47.90625 L 496.097656 43.328125 Z M 498.667969 179.054688 " clip-rule="nonzero"/></clipPath><clipPath id="clip-68"><path d="M 673 9 L 858.5 9 L 858.5 153 L 673 153 Z M 673 9 " clip-rule="nonzero"/></clipPath><clipPath id="clip-69"><path d="M 661.703125 31.207031 L 900.714844 -3.375 L 920.152344 130.976562 L 681.140625 165.554688 Z M 661.703125 31.207031 " clip-rule="nonzero"/></clipPath><clipPath id="clip-70"><path d="M 900.34375 -3.320312 L 661.332031 31.257812 L 680.769531 165.609375 L 919.78125 131.027344 Z M 900.34375 -3.320312 " clip-rule="nonzero"/></clipPath><clipPath id="clip-71"><path d="M 822 28 L 853 28 L 853 77 L 822 77 Z M 822 28 " clip-rule="nonzero"/></clipPath><clipPath id="clip-72"><path d="M 816.367188 31.828125 L 846.113281 24.039062 L 858.84375 72.648438 L 829.097656 80.441406 Z M 816.367188 31.828125 " clip-rule="nonzero"/></clipPath><clipPath id="clip-73"><path d="M 816.367188 31.828125 L 846.113281 24.039062 L 858.84375 72.648438 L 829.097656 80.441406 Z M 816.367188 31.828125 " clip-rule="nonzero"/></clipPath><clipPath id="clip-74"><path d="M 371 36 L 396 36 L 396 76 L 371 76 Z M 371 36 " clip-rule="nonzero"/></clipPath><clipPath id="clip-75"><path d="M 372.523438 35.835938 L 396.476562 37.292969 L 394.109375 76.222656 L 370.15625 74.765625 Z M 372.523438 35.835938 " clip-rule="nonzero"/></clipPath><clipPath id="clip-76"><path d="M 372.523438 35.835938 L 396.476562 37.292969 L 394.109375 76.222656 L 370.15625 74.765625 Z M 372.523438 35.835938 " clip-rule="nonzero"/></clipPath><clipPath id="clip-77"><path d="M 193 52 L 228 52 L 228 88 L 193 88 Z M 193 52 " clip-rule="nonzero"/></clipPath><clipPath id="clip-78"><path d="M 190.261719 56.09375 L 224.734375 48.742188 L 231.769531 81.753906 L 197.296875 89.101562 Z M 190.261719 56.09375 " clip-rule="nonzero"/></clipPath><clipPath id="clip-79"><path d="M 190.261719 56.09375 L 224.734375 48.742188 L 231.769531 81.753906 L 197.296875 89.101562 Z M 190.261719 56.09375 " clip-rule="nonzero"/></clipPath><clipPath id="clip-80"><path d="M 192 52 L 228 52 L 228 88 L 192 88 Z M 192 52 " clip-rule="nonzero"/></clipPath><clipPath id="clip-81"><path d="M 190.261719 56.09375 L 224.734375 48.742188 L 231.769531 81.753906 L 197.296875 89.101562 Z M 190.261719 56.09375 " clip-rule="nonzero"/></clipPath><clipPath id="clip-82"><path d="M 190.261719 56.09375 L 224.734375 48.742188 L 231.769531 81.753906 L 197.296875 89.101562 Z M 190.261719 56.09375 " clip-rule="nonzero"/></clipPath><clipPath id="clip-83"><path d="M 707 43 L 740 43 L 740 75 L 707 75 Z M 707 43 " clip-rule="nonzero"/></clipPath><clipPath id="clip-84"><path d="M 709.425781 40.722656 L 741.367188 45.171875 L 737.230469 74.886719 L 705.289062 70.4375 Z M 709.425781 40.722656 " clip-rule="nonzero"/></clipPath><clipPath id="clip-85"><path d="M 709.425781 40.722656 L 741.367188 45.171875 L 737.230469 74.886719 L 705.289062 70.4375 Z M 709.425781 40.722656 " clip-rule="nonzero"/></clipPath><clipPath id="clip-86"><path d="M 707 42 L 740 42 L 740 74 L 707 74 Z M 707 42 " clip-rule="nonzero"/></clipPath><clipPath id="clip-87"><path d="M 709.425781 40.722656 L 741.367188 45.171875 L 737.230469 74.886719 L 705.289062 70.4375 Z M 709.425781 40.722656 " clip-rule="nonzero"/></clipPath><clipPath id="clip-88"><path d="M 709.425781 40.722656 L 741.367188 45.171875 L 737.230469 74.886719 L 705.289062 70.4375 Z M 709.425781 40.722656 " clip-rule="nonzero"/></clipPath><clipPath id="clip-89"><path d="M 57 14 L 96 14 L 96 51 L 57 51 Z M 57 14 " clip-rule="nonzero"/></clipPath><clipPath id="clip-90"><path d="M 60.847656 12.222656 L 98.449219 22.5625 L 89.300781 55.828125 L 51.699219 45.488281 Z M 60.847656 12.222656 " clip-rule="nonzero"/></clipPath><clipPath id="clip-91"><path d="M 60.847656 12.222656 L 98.449219 22.5625 L 89.300781 55.828125 L 51.699219 45.488281 Z M 60.847656 12.222656 " clip-rule="nonzero"/></clipPath><clipPath id="clip-92"><path d="M 563 51 L 593 51 L 593 79 L 563 79 Z M 563 51 " clip-rule="nonzero"/></clipPath><clipPath id="clip-93"><path d="M 562.398438 54.390625 L 591.34375 50.183594 L 595.121094 76.160156 L 566.175781 80.367188 Z M 562.398438 54.390625 " clip-rule="nonzero"/></clipPath><clipPath id="clip-94"><path d="M 562.398438 54.390625 L 591.34375 50.183594 L 595.121094 76.160156 L 566.175781 80.367188 Z M 562.398438 54.390625 " clip-rule="nonzero"/></clipPath><clipPath id="clip-95"><path d="M 778 86 L 858.5 86 L 858.5 183 L 778 183 Z M 778 86 " clip-rule="nonzero"/></clipPath><mask id="mask-8"><g filter="url(#filter-remove-color)"><rect x="-85.875" width="1030.5" fill="rgb(0%, 0%, 0%)" y="-22.5" height="270" fill-opacity="0.498"/></g></mask><clipPath id="clip-96"><path d="M 5 5 L 80.5 5 L 80.5 92 L 5 92 Z M 5 5 " clip-rule="nonzero"/></clipPath><clipPath id="clip-97"><path d="M 0.457031 13.574219 L 148.367188 0.382812 L 155.761719 83.304688 L 7.851562 96.492188 Z M 0.457031 13.574219 " clip-rule="nonzero"/></clipPath><clipPath id="clip-98"><path d="M 148.53125 0.367188 L 0.617188 13.558594 L 8.011719 96.480469 L 155.925781 83.289062 Z M 148.53125 0.367188 " clip-rule="nonzero"/></clipPath><clipPath id="clip-99"><rect x="0" width="81" y="0" height="97"/></clipPath><clipPath id="clip-100"><path d="M 108 99 L 276 99 L 276 224.964844 L 108 224.964844 Z M 108 99 " clip-rule="nonzero"/></clipPath><mask id="mask-9"><g filter="url(#filter-remove-color)"><rect x="-85.875" width="1030.5" fill="rgb(0%, 0%, 0%)" y="-22.5" height="270" fill-opacity="0.498"/></g></mask><clipPath id="clip-101"><path d="M 10 27 L 153 27 L 153 112 L 10 112 Z M 10 27 " clip-rule="nonzero"/></clipPath><clipPath id="clip-102"><path d="M 26.0625 0.894531 L 167.496094 46.160156 L 142.121094 125.449219 L 0.6875 80.183594 Z M 26.0625 0.894531 " clip-rule="nonzero"/></clipPath><clipPath id="clip-103"><path d="M 167.652344 46.210938 L 26.21875 0.945312 L 0.84375 80.230469 L 142.277344 125.5 Z M 167.652344 46.210938 " clip-rule="nonzero"/></clipPath><clipPath id="clip-104"><rect x="0" width="168" y="0" height="126"/></clipPath><clipPath id="clip-105"><path d="M 10 59 L 196 59 L 196 166 L 10 166 Z M 10 59 " clip-rule="nonzero"/></clipPath><clipPath id="clip-106"><path d="M 26.128906 32.328125 L 211.71875 78.5 L 185.828125 182.578125 L 0.234375 136.40625 Z M 26.128906 32.328125 " clip-rule="nonzero"/></clipPath><clipPath id="clip-107"><path d="M 211.832031 78.527344 L 26.242188 32.355469 L 0.347656 136.433594 L 185.941406 182.605469 Z M 211.832031 78.527344 " clip-rule="nonzero"/></clipPath><mask id="mask-10"><g filter="url(#filter-remove-color)"><rect x="-85.875" width="1030.5" fill="rgb(0%, 0%, 0%)" y="-22.5" height="270" fill-opacity="0.498"/></g></mask><clipPath id="clip-108"><path d="M 1 0.980469 L 233.535156 0.980469 L 233.535156 132.230469 L 1 132.230469 Z M 1 0.980469 " clip-rule="nonzero"/></clipPath><clipPath id="clip-109"><rect x="0" width="235" y="0" height="133"/></clipPath><clipPath id="clip-110"><path d="M 465 127 L 482 127 L 482 154 L 465 154 Z M 465 127 " clip-rule="nonzero"/></clipPath><clipPath id="clip-111"><path d="M 466.304688 126.511719 L 482.46875 127.828125 L 480.324219 154.207031 L 464.15625 152.890625 Z M 466.304688 126.511719 " clip-rule="nonzero"/></clipPath><clipPath id="clip-112"><path d="M 466.304688 126.511719 L 482.46875 127.828125 L 480.324219 154.207031 L 464.15625 152.890625 Z M 466.304688 126.511719 " clip-rule="nonzero"/></clipPath><clipPath id="clip-113"><path d="M 435 126 L 463 126 L 463 170 L 435 170 Z M 435 126 " clip-rule="nonzero"/></clipPath><clipPath id="clip-114"><path d="M 437.183594 125.539062 L 464.410156 127.757812 L 460.875 171.152344 L 433.648438 168.933594 Z M 437.183594 125.539062 " clip-rule="nonzero"/></clipPath><clipPath id="clip-115"><path d="M 437.183594 125.539062 L 464.410156 127.757812 L 460.875 171.152344 L 433.648438 168.933594 Z M 437.183594 125.539062 " clip-rule="nonzero"/></clipPath><clipPath id="clip-116"><path d="M 662 108 L 691 108 L 691 135 L 662 135 Z M 662 108 " clip-rule="nonzero"/></clipPath><clipPath id="clip-117"><path d="M 661.703125 109.433594 L 689.289062 106.441406 L 692.121094 132.539062 L 664.53125 135.53125 Z M 661.703125 109.433594 " clip-rule="nonzero"/></clipPath><clipPath id="clip-118"><path d="M 661.703125 109.433594 L 689.289062 106.441406 L 692.121094 132.539062 L 664.53125 135.53125 Z M 661.703125 109.433594 " clip-rule="nonzero"/></clipPath><clipPath id="clip-119"><path d="M 662 107 L 691 107 L 691 135 L 662 135 Z M 662 107 " clip-rule="nonzero"/></clipPath><clipPath id="clip-120"><path d="M 661.703125 109.433594 L 689.289062 106.441406 L 692.121094 132.539062 L 664.53125 135.53125 Z M 661.703125 109.433594 " clip-rule="nonzero"/></clipPath><clipPath id="clip-121"><path d="M 661.703125 109.433594 L 689.289062 106.441406 L 692.121094 132.539062 L 664.53125 135.53125 Z M 661.703125 109.433594 " clip-rule="nonzero"/></clipPath><clipPath id="clip-122"><path d="M 0 92 L 166 92 L 166 199 L 0 199 Z M 0 92 " clip-rule="nonzero"/></clipPath><clipPath id="clip-123"><path d="M -4.742188 65.65625 L 180.847656 111.828125 L 154.957031 215.90625 L -30.636719 169.734375 Z M -4.742188 65.65625 " clip-rule="nonzero"/></clipPath><clipPath id="clip-124"><path d="M 180.964844 111.859375 L -4.628906 65.6875 L -30.523438 169.761719 L 155.070312 215.933594 Z M 180.964844 111.859375 " clip-rule="nonzero"/></clipPath><clipPath id="clip-125"><path d="M 0 150 L 20 150 L 20 178 L 0 178 Z M 0 150 " clip-rule="nonzero"/></clipPath><clipPath id="clip-126"><path d="M -10.457031 153.648438 L 18.488281 149.441406 L 22.265625 175.421875 L -6.683594 179.628906 Z M -10.457031 153.648438 " clip-rule="nonzero"/></clipPath><clipPath id="clip-127"><path d="M -10.457031 153.648438 L 18.488281 149.441406 L 22.265625 175.421875 L -6.683594 179.628906 Z M -10.457031 153.648438 " clip-rule="nonzero"/></clipPath></defs><g clip-path="url(#clip-0)"><g clip-path="url(#clip-1)"><g clip-path="url(#clip-2)"><path fill="rgb(100%, 100%, 100%)" d="M 372.925781 134.421875 C 369.167969 149.535156 378.390625 164.832031 393.527344 168.597656 C 394.054688 168.730469 394.585938 168.863281 395.160156 168.964844 C 398.226562 169.527344 401.292969 169.609375 404.246094 169.183594 C 405.417969 171.554688 406.78125 173.816406 408.332031 175.960938 C 414.363281 184.265625 423.25 190.597656 434.007812 193.273438 C 443.445312 195.621094 452.945312 194.824219 461.382812 191.519531 C 463.316406 192.761719 465.375 193.835938 467.507812 194.765625 C 469.820312 195.78125 472.230469 196.582031 474.757812 197.210938 C 482.683594 199.183594 490.648438 198.921875 498.011719 196.871094 C 501.199219 195.984375 504.234375 194.738281 507.148438 193.183594 C 510.917969 198.164062 516.347656 201.953125 522.878906 203.578125 C 533.5625 206.238281 544.332031 202.433594 551.074219 194.667969 C 553.886719 191.40625 555.984375 187.488281 557.09375 183.039062 C 560.851562 167.929688 551.628906 152.632812 536.492188 148.867188 C 536.378906 148.835938 536.265625 148.808594 536.152344 148.78125 C 538.691406 126.484375 524.414062 105.246094 502.066406 99.6875 C 487.910156 96.164062 473.632812 99.734375 463.042969 108.144531 C 460.730469 107.128906 458.324219 106.332031 455.792969 105.703125 C 440.316406 101.851562 424.738281 106.457031 413.925781 116.574219 C 411.847656 115.414062 409.546875 114.523438 407.128906 113.921875 C 392.558594 110.296875 377.808594 118.671875 373.367188 132.8125 C 373.238281 133.339844 373.066406 133.859375 372.925781 134.421875 Z M 372.925781 134.421875 " fill-opacity="1" fill-rule="nonzero"/></g></g></g><g mask="url(#mask-0)"><g transform="matrix(1, 0, 0, 1, 377, 80)"><g id="source-5" clip-path="url(#clip-4)"><g clip-path="url(#clip-3)"><path fill="rgb(100%, 100%, 100%)" d="M 0.675781 80.386719 C 0.675781 99.441406 16.09375 114.886719 35.117188 114.886719 C 35.78125 114.886719 36.449219 114.886719 37.160156 114.839844 C 40.953125 114.601562 44.605469 113.792969 47.976562 112.414062 C 50.0625 114.886719 52.339844 117.167969 54.808594 119.257812 C 64.390625 127.335938 76.773438 132.230469 90.292969 132.230469 C 102.15625 132.230469 113.160156 128.476562 122.175781 122.0625 C 124.832031 122.964844 127.582031 123.628906 130.382812 124.105469 C 133.417969 124.628906 136.503906 124.863281 139.683594 124.863281 C 149.644531 124.863281 158.992188 122.203125 167.101562 117.59375 C 170.613281 115.597656 173.839844 113.222656 176.828125 110.515625 C 182.757812 115.3125 190.300781 118.210938 198.511719 118.210938 C 211.9375 118.210938 223.558594 110.515625 229.253906 99.300781 C 231.625 94.59375 232.953125 89.320312 232.953125 83.714844 C 232.953125 64.65625 217.535156 49.214844 198.511719 49.214844 C 198.367188 49.214844 198.226562 49.214844 198.082031 49.214844 C 194.523438 21.984375 171.375 0.980469 143.289062 0.980469 C 125.496094 0.980469 109.652344 9.4375 99.59375 22.554688 C 96.558594 22.03125 93.472656 21.792969 90.292969 21.792969 C 70.84375 21.792969 53.765625 31.867188 43.941406 47.074219 C 41.144531 46.316406 38.15625 45.933594 35.117188 45.933594 C 16.804688 45.933594 1.8125 60.238281 0.722656 78.34375 C 0.722656 79.007812 0.675781 79.671875 0.675781 80.386719 Z M 0.675781 80.386719 " fill-opacity="1" fill-rule="nonzero"/></g></g></g></g><g clip-path="url(#clip-5)"><g clip-path="url(#clip-6)"><g clip-path="url(#clip-7)"><path fill="rgb(100%, 100%, 100%)" d="M 247.082031 153.507812 C 245.050781 168.945312 255.933594 183.109375 271.398438 185.148438 C 271.941406 185.21875 272.480469 185.289062 273.0625 185.328125 C 276.175781 185.542969 279.230469 185.277344 282.117188 184.523438 C 283.546875 186.75 285.15625 188.839844 286.9375 190.796875 C 293.867188 198.371094 303.410156 203.660156 314.402344 205.109375 C 324.042969 206.378906 333.390625 204.519531 341.402344 200.285156 C 343.46875 201.304688 345.632812 202.136719 347.855469 202.820312 C 350.269531 203.570312 352.75 204.09375 355.335938 204.433594 C 363.433594 205.5 371.316406 204.347656 378.402344 201.480469 C 381.46875 200.242188 384.347656 198.660156 387.066406 196.785156 C 391.375 201.3125 397.195312 204.46875 403.867188 205.347656 C 414.78125 206.785156 425.054688 201.792969 430.878906 193.316406 C 433.308594 189.761719 434.953125 185.628906 435.550781 181.085938 C 437.585938 165.648438 426.699219 151.484375 411.234375 149.449219 C 411.117188 149.433594 411.003906 149.417969 410.886719 149.402344 C 410.902344 126.960938 394.324219 107.464844 371.492188 104.457031 C 357.03125 102.550781 343.246094 107.707031 333.667969 117.253906 C 331.257812 116.503906 328.777344 115.980469 326.191406 115.640625 C 310.378906 113.558594 295.417969 119.890625 285.8125 131.15625 C 283.617188 130.242188 281.230469 129.613281 278.761719 129.289062 C 263.875 127.324219 250.160156 137.308594 247.339844 151.859375 C 247.269531 152.398438 247.160156 152.929688 247.082031 153.507812 Z M 247.082031 153.507812 " fill-opacity="1" fill-rule="nonzero"/></g></g></g><g clip-path="url(#clip-8)"><g clip-path="url(#clip-9)"><g clip-path="url(#clip-10)"><path fill="rgb(100%, 100%, 100%)" d="M 162.035156 110.195312 C 159.410156 129.726562 141.457031 143.429688 121.933594 140.804688 C 121.253906 140.710938 120.570312 140.621094 119.847656 140.472656 C 115.984375 139.707031 112.347656 138.375 109.082031 136.496094 C 106.597656 138.742188 103.949219 140.765625 101.128906 142.570312 C 90.179688 149.527344 76.796875 152.835938 62.921875 150.96875 C 50.75 149.332031 39.972656 143.964844 31.609375 136.144531 C 28.757812 136.703125 25.84375 137.007812 22.902344 137.109375 C 19.714844 137.226562 16.519531 137.042969 13.257812 136.605469 C 3.03125 135.230469 -6.191406 131.210938 -13.882812 125.367188 C -17.207031 122.835938 -20.191406 119.957031 -22.886719 116.765625 C -29.632812 120.867188 -37.773438 122.800781 -46.195312 121.667969 C -59.972656 119.8125 -70.839844 110.320312 -75.136719 98.039062 C -76.921875 92.886719 -77.558594 87.296875 -76.785156 81.550781 C -74.160156 62.015625 -56.207031 48.3125 -36.683594 50.9375 C -36.539062 50.957031 -36.394531 50.976562 -36.246094 50.996094 C -28.84375 23.578125 -2.1875 5.242188 26.632812 9.117188 C 44.890625 11.574219 59.984375 22.429688 68.5 37.261719 C 71.6875 37.144531 74.882812 37.328125 78.144531 37.765625 C 98.105469 40.449219 114.246094 53.132812 122.226562 70.078125 C 125.203125 69.683594 128.324219 69.707031 131.441406 70.125 C 150.230469 72.652344 163.644531 89.382812 162.269531 108.09375 C 162.175781 108.773438 162.132812 109.460938 162.035156 110.195312 Z M 162.035156 110.195312 " fill-opacity="1" fill-rule="nonzero"/></g></g></g><g clip-path="url(#clip-11)"><g clip-path="url(#clip-12)"><g clip-path="url(#clip-13)"><path fill="rgb(100%, 100%, 100%)" d="M 281.421875 146.484375 C 282.757812 130.96875 271.246094 117.3125 255.707031 115.972656 C 255.164062 115.925781 254.621094 115.878906 254.035156 115.867188 C 250.917969 115.792969 247.878906 116.195312 245.027344 117.078125 C 243.496094 114.921875 241.796875 112.902344 239.929688 111.027344 C 232.664062 103.777344 222.894531 98.917969 211.847656 97.96875 C 202.160156 97.132812 192.90625 99.414062 185.089844 104.003906 C 182.984375 103.082031 180.78125 102.34375 178.527344 101.761719 C 176.085938 101.121094 173.582031 100.710938 170.984375 100.488281 C 162.847656 99.785156 155.027344 101.296875 148.074219 104.476562 C 145.066406 105.855469 142.265625 107.5625 139.632812 109.554688 C 135.125 105.230469 129.167969 102.339844 122.460938 101.761719 C 111.492188 100.816406 101.457031 106.265625 96.019531 114.996094 C 93.753906 118.660156 92.296875 122.859375 91.902344 127.425781 C 90.566406 142.9375 102.078125 156.597656 117.621094 157.9375 C 117.738281 157.945312 117.855469 157.957031 117.96875 157.96875 C 118.964844 180.386719 136.40625 199.113281 159.351562 201.089844 C 173.882812 202.34375 187.421875 196.574219 196.558594 186.601562 C 199.003906 187.242188 201.503906 187.652344 204.101562 187.875 C 219.992188 189.246094 234.652344 182.246094 243.738281 170.558594 C 245.972656 171.375 248.386719 171.894531 250.867188 172.105469 C 265.828125 173.394531 279.078125 162.808594 281.242188 148.144531 C 281.285156 147.601562 281.371094 147.0625 281.421875 146.484375 Z M 281.421875 146.484375 " fill-opacity="1" fill-rule="nonzero"/></g></g></g><g mask="url(#mask-1)"><g transform="matrix(1, 0, 0, 1, 0, 20)"><g id="source-8" clip-path="url(#clip-17)"><g clip-path="url(#clip-14)"><g clip-path="url(#clip-15)"><g clip-path="url(#clip-16)"><path fill="rgb(100%, 100%, 100%)" d="M -2.878906 58.777344 C -10.941406 72.730469 -6.1875 90.5625 7.746094 98.613281 C 8.230469 98.894531 8.71875 99.171875 9.257812 99.441406 C 12.136719 100.871094 15.15625 101.824219 18.203125 102.242188 C 18.6875 104.933594 19.390625 107.570312 20.3125 110.144531 C 23.910156 120.113281 30.90625 128.9375 40.808594 134.660156 C 49.492188 139.675781 59.140625 141.585938 68.457031 140.703125 C 70.019531 142.488281 71.753906 144.140625 73.601562 145.671875 C 75.605469 147.339844 77.761719 148.816406 80.089844 150.164062 C 87.382812 154.378906 95.355469 156.382812 103.246094 156.441406 C 106.660156 156.464844 110.027344 156.089844 113.363281 155.371094 C 115.675781 161.394531 119.972656 166.710938 125.980469 170.183594 C 135.8125 175.863281 147.582031 175.144531 156.496094 169.34375 C 160.222656 166.902344 163.425781 163.601562 165.800781 159.496094 C 173.863281 145.539062 169.109375 127.707031 155.175781 119.65625 C 155.074219 119.597656 154.96875 119.539062 154.863281 119.476562 C 163.78125 98.035156 155.714844 72.855469 135.148438 60.972656 C 122.121094 53.445312 106.9375 52.933594 94.023438 58.28125 C 92.023438 56.613281 89.863281 55.136719 87.535156 53.792969 C 73.292969 45.5625 56.523438 45.710938 42.898438 52.691406 C 41.171875 50.949219 39.144531 49.40625 36.921875 48.121094 C 23.511719 40.375 6.480469 44.503906 -1.980469 57.300781 C -2.261719 57.785156 -2.578125 58.253906 -2.878906 58.777344 Z M -2.878906 58.777344 " fill-opacity="1" fill-rule="nonzero"/></g></g></g></g></g></g><g mask="url(#mask-2)"><g transform="matrix(1, 0, 0, 1, 0, 65)"><g id="source-11" clip-path="url(#clip-21)"><g clip-path="url(#clip-18)"><g clip-path="url(#clip-19)"><g clip-path="url(#clip-20)"><path fill="rgb(100%, 100%, 100%)" d="M -6.882812 89.113281 C -7.429688 110.339844 9.328125 127.984375 30.550781 128.53125 C 31.289062 128.546875 32.03125 128.566406 32.824219 128.535156 C 37.066406 128.378906 41.164062 127.582031 44.960938 126.144531 C 47.21875 128.957031 49.695312 131.5625 52.386719 133.964844 C 62.84375 143.234375 76.515625 149.042969 91.597656 149.429688 C 104.828125 149.769531 117.214844 145.902344 127.453125 139.015625 C 130.390625 140.097656 133.441406 140.914062 136.550781 141.527344 C 139.921875 142.195312 143.355469 142.546875 146.898438 142.636719 C 158.011719 142.921875 168.515625 140.226562 177.695312 135.324219 C 181.667969 133.203125 185.335938 130.648438 188.746094 127.714844 C 195.222656 133.230469 203.554688 136.675781 212.710938 136.910156 C 227.6875 137.296875 240.871094 129.054688 247.542969 116.722656 C 250.324219 111.550781 251.957031 105.714844 252.117188 99.46875 C 252.660156 78.242188 235.902344 60.597656 214.683594 60.050781 C 214.523438 60.046875 214.363281 60.042969 214.207031 60.039062 C 211.015625 29.609375 185.792969 5.546875 154.460938 4.746094 C 134.617188 4.234375 116.699219 13.203125 105.105469 27.527344 C 101.734375 26.855469 98.300781 26.503906 94.757812 26.414062 C 73.058594 25.855469 53.71875 36.589844 42.332031 53.246094 C 39.230469 52.320312 35.90625 51.808594 32.519531 51.722656 C 12.09375 51.199219 -5.039062 66.703125 -6.773438 86.839844 C -6.792969 87.582031 -6.863281 88.320312 -6.882812 89.113281 Z M -6.882812 89.113281 " fill-opacity="1" fill-rule="nonzero"/></g></g></g></g></g></g><g clip-path="url(#clip-22)"><g clip-path="url(#clip-23)"><g clip-path="url(#clip-24)"><path fill="rgb(100%, 100%, 100%)" d="M 638.980469 79.445312 C 635.222656 94.558594 644.441406 109.855469 659.582031 113.621094 C 660.109375 113.753906 660.636719 113.886719 661.214844 113.988281 C 664.28125 114.550781 667.347656 114.632812 670.296875 114.207031 C 671.472656 116.582031 672.832031 118.839844 674.382812 120.988281 C 680.417969 129.289062 689.304688 135.621094 700.0625 138.296875 C 709.5 140.644531 718.996094 139.847656 727.433594 136.546875 C 729.371094 137.789062 731.429688 138.859375 733.5625 139.789062 C 735.875 140.804688 738.28125 141.605469 740.8125 142.234375 C 748.738281 144.207031 756.699219 143.945312 764.066406 141.898438 C 767.253906 141.007812 770.289062 139.761719 773.199219 138.207031 C 776.972656 143.1875 782.402344 146.980469 788.933594 148.605469 C 799.617188 151.261719 810.382812 147.457031 817.125 139.691406 C 819.941406 136.429688 822.039062 132.511719 823.144531 128.066406 C 826.90625 112.953125 817.683594 97.65625 802.546875 93.890625 C 802.433594 93.863281 802.320312 93.832031 802.207031 93.804688 C 804.746094 71.507812 790.46875 50.269531 768.121094 44.710938 C 753.964844 41.1875 739.6875 44.761719 729.097656 53.167969 C 726.785156 52.152344 724.378906 51.355469 721.847656 50.726562 C 706.371094 46.875 690.792969 51.484375 679.980469 61.597656 C 677.902344 60.441406 675.597656 59.546875 673.183594 58.945312 C 658.613281 55.320312 643.863281 63.695312 639.421875 77.835938 C 639.289062 78.363281 639.121094 78.882812 638.980469 79.445312 Z M 638.980469 79.445312 " fill-opacity="1" fill-rule="nonzero"/></g></g></g><g clip-path="url(#clip-25)"><g clip-path="url(#clip-26)"><g clip-path="url(#clip-27)"><path fill="rgb(100%, 100%, 100%)" d="M 570.84375 138.015625 C 567.324219 153.230469 576.796875 168.414062 592.003906 171.929688 C 592.535156 172.054688 593.066406 172.175781 593.640625 172.269531 C 596.71875 172.785156 599.789062 172.8125 602.738281 172.335938 C 603.949219 174.695312 605.347656 176.9375 606.933594 179.0625 C 613.101562 187.285156 622.097656 193.484375 632.90625 195.984375 C 642.386719 198.179688 651.878906 197.21875 660.269531 193.765625 C 662.226562 194.976562 664.300781 196.015625 666.453125 196.914062 C 668.78125 197.890625 671.203125 198.652344 673.746094 199.242188 C 681.710938 201.082031 689.671875 200.6875 697.007812 198.507812 C 700.183594 197.5625 703.203125 196.265625 706.089844 194.65625 C 709.945312 199.582031 715.4375 203.292969 722 204.8125 C 732.734375 207.292969 743.445312 203.296875 750.070312 195.398438 C 752.835938 192.082031 754.871094 188.117188 755.90625 183.640625 C 759.425781 168.425781 749.957031 153.242188 734.746094 149.722656 C 734.632812 149.699219 734.519531 149.671875 734.40625 149.644531 C 736.59375 127.25 721.964844 106.195312 699.515625 101 C 685.292969 97.710938 671.0625 101.53125 660.601562 110.144531 C 658.269531 109.164062 655.847656 108.402344 653.308594 107.816406 C 637.757812 104.21875 622.246094 109.101562 611.585938 119.425781 C 609.488281 118.300781 607.167969 117.445312 604.742188 116.882812 C 590.101562 113.496094 575.476562 122.140625 571.257812 136.394531 C 571.136719 136.925781 570.976562 137.449219 570.84375 138.015625 Z M 570.84375 138.015625 " fill-opacity="1" fill-rule="nonzero"/></g></g></g><g clip-path="url(#clip-28)"><g clip-path="url(#clip-29)"><g clip-path="url(#clip-30)"><path fill="rgb(100%, 100%, 100%)" d="M 860.804688 113.777344 C 858.296875 98.363281 843.777344 87.902344 828.371094 90.410156 C 827.832031 90.496094 827.296875 90.585938 826.726562 90.714844 C 823.683594 91.410156 820.832031 92.542969 818.285156 94.101562 C 816.269531 92.378906 814.125 90.832031 811.851562 89.46875 C 803.027344 84.195312 792.355469 81.867188 781.40625 83.648438 C 771.800781 85.210938 763.378906 89.699219 756.925781 96.074219 C 754.652344 95.695312 752.335938 95.519531 750.007812 95.503906 C 747.480469 95.480469 744.953125 95.695312 742.378906 96.113281 C 734.308594 97.425781 727.089844 100.808594 721.125 105.605469 C 718.546875 107.683594 716.246094 110.03125 714.183594 112.613281 C 708.746094 109.511719 702.257812 108.164062 695.609375 109.242188 C 684.738281 111.011719 676.335938 118.769531 673.203125 128.589844 C 671.898438 132.710938 671.519531 137.152344 672.253906 141.6875 C 674.761719 157.097656 689.28125 167.558594 704.6875 165.054688 C 704.804688 165.035156 704.917969 165.015625 705.035156 164.996094 C 711.5 186.550781 733.011719 200.492188 755.757812 196.789062 C 770.164062 194.445312 781.886719 185.515625 788.304688 173.585938 C 790.832031 173.605469 793.363281 173.394531 795.9375 172.972656 C 811.6875 170.410156 824.195312 160.011719 830.148438 146.417969 C 832.515625 146.667969 834.984375 146.578125 837.445312 146.179688 C 852.273438 143.765625 862.535156 130.222656 861.035156 115.433594 C 860.949219 114.898438 860.898438 114.351562 860.804688 113.777344 Z M 860.804688 113.777344 " fill-opacity="1" fill-rule="nonzero"/></g></g></g><g clip-path="url(#clip-31)"><g clip-path="url(#clip-32)"><g clip-path="url(#clip-33)"><path fill="rgb(100%, 100%, 100%)" d="M 616.152344 178.558594 C 623.1875 164.617188 617.59375 147.617188 603.65625 140.585938 C 603.171875 140.339844 602.683594 140.097656 602.144531 139.867188 C 599.277344 138.640625 596.300781 137.878906 593.328125 137.644531 C 592.710938 135.0625 591.882812 132.554688 590.847656 130.113281 C 586.808594 120.660156 579.542969 112.503906 569.640625 107.503906 C 560.949219 103.121094 551.503906 101.800781 542.53125 103.164062 C 540.917969 101.519531 539.148438 100.015625 537.273438 98.632812 C 535.242188 97.128906 533.070312 95.816406 530.742188 94.640625 C 523.445312 90.960938 515.613281 89.453125 507.96875 89.828125 C 504.660156 89.988281 501.421875 90.535156 498.230469 91.414062 C 495.660156 85.710938 491.203125 80.800781 485.191406 77.769531 C 475.355469 72.804688 464 74.140625 455.6875 80.242188 C 452.214844 82.808594 449.296875 86.175781 447.226562 90.28125 C 440.191406 104.222656 445.785156 121.21875 459.722656 128.25 C 459.828125 128.300781 459.929688 128.355469 460.035156 128.40625 C 452.59375 149.644531 461.800781 173.566406 482.375 183.949219 C 495.40625 190.523438 510.136719 190.191406 522.34375 184.3125 C 524.375 185.816406 526.546875 187.128906 528.875 188.304688 C 543.125 195.492188 559.355469 194.433594 572.164062 186.9375 C 573.933594 188.527344 575.980469 189.910156 578.207031 191.035156 C 591.621094 197.800781 607.882812 192.878906 615.367188 180.035156 C 615.609375 179.546875 615.890625 179.078125 616.152344 178.558594 Z M 616.152344 178.558594 " fill-opacity="1" fill-rule="nonzero"/></g></g></g><g clip-path="url(#clip-34)"><g clip-path="url(#clip-35)"><g clip-path="url(#clip-36)"><path fill="rgb(100%, 100%, 100%)" d="M 815.335938 132.628906 C 817.148438 148.140625 831.179688 159.242188 846.683594 157.433594 C 847.226562 157.371094 847.765625 157.308594 848.34375 157.199219 C 851.414062 156.644531 854.3125 155.640625 856.925781 154.199219 C 858.863281 156.011719 860.9375 157.652344 863.144531 159.117188 C 871.722656 164.78125 882.277344 167.589844 893.296875 166.304688 C 902.964844 165.175781 911.578125 161.074219 918.316406 154.992188 C 920.566406 155.476562 922.871094 155.753906 925.199219 155.875 C 927.722656 156.011719 930.257812 155.914062 932.847656 155.609375 C 940.96875 154.664062 948.332031 151.609375 954.503906 147.085938 C 957.175781 145.125 959.582031 142.886719 961.757812 140.394531 C 967.046875 143.738281 973.46875 145.378906 980.160156 144.601562 C 991.101562 143.324219 999.84375 135.953125 1003.417969 126.28125 C 1004.902344 122.226562 1005.484375 117.808594 1004.953125 113.242188 C 1003.140625 97.734375 989.109375 86.628906 973.605469 88.4375 C 973.488281 88.453125 973.371094 88.464844 973.257812 88.480469 C 967.769531 66.65625 946.90625 51.761719 924.019531 54.433594 C 909.519531 56.125 897.410156 64.515625 890.457031 76.148438 C 887.933594 76.011719 885.398438 76.113281 882.808594 76.414062 C 866.957031 78.265625 853.992188 88.089844 847.433594 101.398438 C 845.082031 101.046875 842.609375 101.023438 840.132812 101.3125 C 825.210938 103.050781 814.351562 116.121094 815.179688 130.960938 C 815.246094 131.503906 815.269531 132.046875 815.335938 132.628906 Z M 815.335938 132.628906 " fill-opacity="1" fill-rule="nonzero"/></g></g></g><g clip-path="url(#clip-37)"><g mask="url(#mask-3)"><g transform="matrix(1, 0, 0, 1, 55, 65)"><g id="source-14" clip-path="url(#clip-41)"><g clip-path="url(#clip-38)"><g clip-path="url(#clip-39)"><g clip-path="url(#clip-40)"><path fill="rgb(100%, 100%, 100%)" d="M 6.414062 77.945312 C 4.570312 57.882812 19.371094 40.128906 39.472656 38.28125 C 40.175781 38.214844 40.875 38.152344 41.632812 38.132812 C 45.667969 38.015625 49.605469 38.511719 53.296875 39.632812 C 55.265625 36.828125 57.449219 34.207031 59.855469 31.765625 C 69.199219 22.332031 81.8125 15.976562 96.101562 14.664062 C 108.632812 13.511719 120.628906 16.394531 130.773438 22.273438 C 133.496094 21.0625 136.335938 20.097656 139.25 19.324219 C 142.40625 18.480469 145.644531 17.929688 149.003906 17.621094 C 159.53125 16.652344 169.664062 18.546875 178.683594 22.613281 C 182.585938 24.371094 186.226562 26.558594 189.644531 29.121094 C 195.449219 23.492188 203.136719 19.707031 211.8125 18.910156 C 226 17.609375 239.027344 24.582031 246.128906 35.835938 C 249.089844 40.558594 251.003906 45.980469 251.546875 51.882812 C 253.390625 71.945312 238.589844 89.699219 218.488281 91.546875 C 218.335938 91.5625 218.1875 91.574219 218.035156 91.589844 C 216.910156 120.597656 194.476562 144.957031 164.796875 147.683594 C 145.996094 149.414062 128.433594 142.046875 116.539062 129.21875 C 113.378906 130.0625 110.144531 130.613281 106.785156 130.921875 C 86.230469 132.808594 67.207031 123.863281 55.359375 108.808594 C 52.472656 109.882812 49.351562 110.570312 46.144531 110.867188 C 26.792969 112.644531 9.566406 99.042969 6.660156 80.089844 C 6.597656 79.390625 6.480469 78.695312 6.414062 77.945312 Z M 6.414062 77.945312 " fill-opacity="1" fill-rule="nonzero"/></g></g></g></g></g></g></g><g mask="url(#mask-4)"><g transform="matrix(1, 0, 0, 1, 142, 65)"><g id="source-17" clip-path="url(#clip-45)"><g clip-path="url(#clip-42)"><g clip-path="url(#clip-43)"><g clip-path="url(#clip-44)"><path fill="rgb(100%, 100%, 100%)" d="M 5.804688 70.652344 C 4.140625 52.542969 17.503906 36.515625 35.65625 34.847656 C 36.289062 34.789062 36.925781 34.730469 37.609375 34.710938 C 41.25 34.605469 44.808594 35.054688 48.140625 36.066406 C 49.917969 33.535156 51.890625 31.167969 54.0625 28.964844 C 62.503906 20.449219 73.890625 14.710938 86.792969 13.527344 C 98.109375 12.484375 108.941406 15.085938 118.101562 20.394531 C 120.558594 19.300781 123.128906 18.429688 125.757812 17.730469 C 128.609375 16.96875 131.53125 16.472656 134.5625 16.195312 C 144.070312 15.320312 153.222656 17.03125 161.367188 20.699219 C 164.890625 22.285156 168.175781 24.261719 171.265625 26.574219 C 176.503906 21.492188 183.449219 18.078125 191.28125 17.355469 C 204.09375 16.179688 215.855469 22.476562 222.269531 32.632812 C 224.941406 36.894531 226.671875 41.792969 227.160156 47.121094 C 228.824219 65.230469 215.460938 81.257812 197.308594 82.925781 C 197.171875 82.9375 197.035156 82.949219 196.898438 82.960938 C 195.882812 109.148438 175.625 131.140625 148.824219 133.601562 C 131.847656 135.164062 115.988281 128.515625 105.246094 116.933594 C 102.394531 117.695312 99.472656 118.191406 96.4375 118.472656 C 77.875 120.175781 60.699219 112.101562 50 98.511719 C 47.394531 99.480469 44.574219 100.105469 41.679688 100.371094 C 24.203125 101.976562 8.648438 89.699219 6.027344 72.589844 C 5.96875 71.957031 5.867188 71.328125 5.804688 70.652344 Z M 5.804688 70.652344 " fill-opacity="1" fill-rule="nonzero"/></g></g></g></g></g></g><g clip-path="url(#clip-46)"><g mask="url(#mask-5)"><g transform="matrix(1, 0, 0, 1, 606, 42)"><g id="source-20" clip-path="url(#clip-50)"><g clip-path="url(#clip-47)"><g clip-path="url(#clip-48)"><g clip-path="url(#clip-49)"><path fill="rgb(100%, 100%, 100%)" d="M 5.492188 78.46875 C 3.644531 58.375 18.414062 40.59375 38.484375 38.75 C 39.183594 38.683594 39.886719 38.621094 40.640625 38.601562 C 44.667969 38.484375 48.601562 38.980469 52.289062 40.109375 C 54.25 37.300781 56.429688 34.671875 58.832031 32.230469 C 68.160156 22.78125 80.746094 16.417969 95.011719 15.109375 C 107.523438 13.957031 119.5 16.851562 129.628906 22.742188 C 132.347656 21.53125 135.183594 20.5625 138.089844 19.789062 C 141.242188 18.945312 144.472656 18.394531 147.828125 18.085938 C 158.339844 17.121094 168.457031 19.023438 177.460938 23.097656 C 181.359375 24.859375 184.992188 27.054688 188.40625 29.621094 C 194.199219 23.984375 201.875 20.195312 210.535156 19.398438 C 224.699219 18.097656 237.707031 25.089844 244.800781 36.363281 C 247.757812 41.09375 249.671875 46.527344 250.214844 52.441406 C 252.0625 72.535156 237.292969 90.316406 217.222656 92.164062 C 217.070312 92.175781 216.921875 92.191406 216.769531 92.203125 C 215.65625 121.261719 193.265625 145.65625 163.636719 148.378906 C 144.867188 150.105469 127.332031 142.722656 115.449219 129.867188 C 112.296875 130.710938 109.066406 131.261719 105.714844 131.570312 C 85.195312 133.453125 66.199219 124.488281 54.367188 109.402344 C 51.484375 110.476562 48.371094 111.167969 45.167969 111.460938 C 25.847656 113.238281 8.644531 99.605469 5.738281 80.621094 C 5.675781 79.917969 5.5625 79.222656 5.492188 78.46875 Z M 5.492188 78.46875 " fill-opacity="1" fill-rule="nonzero"/></g></g></g></g></g></g></g><g clip-path="url(#clip-51)"><g mask="url(#mask-6)"><g transform="matrix(1, 0, 0, 1, 692, 23)"><g id="source-23" clip-path="url(#clip-55)"><g clip-path="url(#clip-52)"><g clip-path="url(#clip-53)"><g clip-path="url(#clip-54)"><path fill="rgb(100%, 100%, 100%)" d="M 5.746094 77.75 C 3.902344 57.65625 18.671875 39.871094 38.738281 38.027344 C 39.441406 37.964844 40.140625 37.898438 40.898438 37.882812 C 44.925781 37.761719 48.855469 38.261719 52.542969 39.386719 C 54.507812 36.578125 56.6875 33.953125 59.085938 31.507812 C 68.414062 22.0625 81.003906 15.699219 95.265625 14.386719 C 107.78125 13.238281 119.753906 16.128906 129.886719 22.019531 C 132.601562 20.8125 135.441406 19.84375 138.347656 19.070312 C 141.5 18.226562 144.730469 17.675781 148.082031 17.367188 C 158.59375 16.402344 168.710938 18.300781 177.71875 22.375 C 181.613281 24.140625 185.246094 26.332031 188.664062 28.898438 C 194.453125 23.261719 202.132812 19.476562 210.789062 18.679688 C 224.953125 17.378906 237.960938 24.371094 245.054688 35.644531 C 248.015625 40.375 249.925781 45.808594 250.46875 51.722656 C 252.316406 71.816406 237.546875 89.597656 217.476562 91.441406 C 217.328125 91.457031 217.175781 91.46875 217.027344 91.484375 C 215.910156 120.542969 193.523438 144.9375 163.894531 147.660156 C 145.125 149.386719 127.589844 142 115.707031 129.144531 C 112.554688 129.992188 109.324219 130.539062 105.96875 130.847656 C 85.449219 132.734375 66.457031 123.765625 54.621094 108.683594 C 51.742188 109.757812 48.625 110.445312 45.421875 110.742188 C 26.101562 112.515625 8.902344 98.886719 5.996094 79.898438 C 5.929688 79.199219 5.816406 78.5 5.746094 77.75 Z M 5.746094 77.75 " fill-opacity="1" fill-rule="nonzero"/></g></g></g></g></g></g></g><g clip-path="url(#clip-56)"><g mask="url(#mask-7)"><g transform="matrix(1, 0, 0, 1, 628, 42)"><g id="source-26" clip-path="url(#clip-58)"><g clip-path="url(#clip-57)"><path fill="rgb(100%, 100%, 100%)" d="M 300.316406 68.113281 C 300.316406 43.613281 280.433594 23.757812 255.902344 23.757812 C 255.046875 23.757812 254.191406 23.757812 253.273438 23.820312 C 248.378906 24.125 243.667969 25.164062 239.324219 26.933594 C 236.632812 23.757812 233.699219 20.824219 230.515625 18.136719 C 218.160156 7.75 202.195312 1.457031 184.761719 1.457031 C 169.46875 1.457031 155.277344 6.285156 143.652344 14.53125 C 140.226562 13.371094 136.679688 12.515625 133.070312 11.90625 C 129.15625 11.234375 125.179688 10.925781 121.082031 10.925781 C 108.234375 10.925781 96.183594 14.347656 85.722656 20.273438 C 81.195312 22.839844 77.035156 25.894531 73.183594 29.378906 C 65.535156 23.207031 55.808594 19.480469 45.226562 19.480469 C 27.914062 19.480469 12.929688 29.378906 5.585938 43.796875 C 2.527344 49.847656 0.816406 56.628906 0.816406 63.835938 C 0.816406 88.335938 20.699219 108.195312 45.226562 108.195312 C 45.410156 108.195312 45.59375 108.195312 45.777344 108.195312 C 50.367188 143.203125 80.21875 170.207031 116.429688 170.207031 C 139.371094 170.207031 159.800781 159.332031 172.769531 142.46875 C 176.6875 143.140625 180.660156 143.445312 184.761719 143.445312 C 209.839844 143.445312 231.863281 130.496094 244.527344 110.941406 C 248.136719 111.921875 251.988281 112.410156 255.902344 112.410156 C 279.515625 112.410156 298.847656 94.019531 300.253906 70.742188 C 300.253906 69.886719 300.316406 69.03125 300.316406 68.113281 Z M 300.316406 68.113281 " fill-opacity="1" fill-rule="nonzero"/></g></g></g></g></g><g clip-path="url(#clip-59)"><g clip-path="url(#clip-60)"><g clip-path="url(#clip-61)"><path fill="rgb(100%, 100%, 100%)" d="M 439.84375 126.125 C 437.589844 106.546875 451.625 88.855469 471.195312 86.601562 C 471.878906 86.523438 472.5625 86.445312 473.300781 86.410156 C 477.234375 86.203125 481.085938 86.601562 484.714844 87.621094 C 486.570312 84.832031 488.640625 82.222656 490.933594 79.78125 C 499.835938 70.347656 511.992188 63.851562 525.902344 62.25 C 538.101562 60.847656 549.867188 63.402344 559.898438 68.925781 C 562.527344 67.683594 565.277344 66.675781 568.101562 65.855469 C 571.160156 64.960938 574.304688 64.351562 577.574219 63.976562 C 587.824219 62.796875 597.753906 64.425781 606.640625 68.199219 C 610.488281 69.835938 614.089844 71.894531 617.484375 74.324219 C 623.015625 68.691406 630.433594 64.820312 638.875 63.847656 C 652.6875 62.261719 665.554688 68.792969 672.734375 79.644531 C 675.730469 84.199219 677.722656 89.460938 678.382812 95.222656 C 680.636719 114.800781 666.601562 132.496094 647.03125 134.746094 C 646.886719 134.761719 646.738281 134.78125 646.59375 134.796875 C 646.152344 163.195312 624.820312 187.515625 595.929688 190.839844 C 577.628906 192.945312 560.328125 186.128906 548.433594 173.84375 C 545.371094 174.738281 542.226562 175.347656 538.957031 175.726562 C 518.949219 178.027344 500.1875 169.695312 488.289062 155.234375 C 485.5 156.347656 482.46875 157.089844 479.347656 157.449219 C 460.507812 159.617188 443.398438 146.695312 440.132812 128.222656 C 440.054688 127.539062 439.929688 126.859375 439.84375 126.125 Z M 439.84375 126.125 " fill-opacity="1" fill-rule="nonzero"/></g></g></g><g clip-path="url(#clip-62)"><g clip-path="url(#clip-63)"><g clip-path="url(#clip-64)"><path fill="rgb(100%, 100%, 100%)" d="M 347.804688 104.839844 C 352.152344 124.0625 340.105469 143.167969 320.894531 147.515625 C 320.222656 147.667969 319.550781 147.816406 318.824219 147.933594 C 314.9375 148.558594 311.0625 148.582031 307.347656 147.960938 C 305.800781 150.929688 304.023438 153.75 302.007812 156.421875 C 294.175781 166.761719 282.785156 174.53125 269.132812 177.621094 C 257.152344 180.328125 245.179688 179.058594 234.613281 174.644531 C 232.136719 176.164062 229.507812 177.464844 226.789062 178.582031 C 223.84375 179.804688 220.78125 180.75 217.574219 181.476562 C 207.511719 183.75 197.464844 183.203125 188.21875 180.40625 C 184.21875 179.195312 180.417969 177.535156 176.78125 175.484375 C 171.886719 181.683594 164.933594 186.332031 156.644531 188.207031 C 143.082031 191.273438 129.589844 186.164062 121.277344 176.152344 C 117.808594 171.949219 115.265625 166.929688 113.984375 161.273438 C 109.632812 142.050781 121.679688 122.949219 140.894531 118.601562 C 141.039062 118.570312 141.179688 118.535156 141.324219 118.503906 C 138.703125 90.222656 157.289062 63.742188 185.65625 57.324219 C 203.621094 53.261719 221.554688 58.171875 234.707031 69.105469 C 237.652344 67.882812 240.714844 66.941406 243.921875 66.214844 C 263.566406 61.769531 283.117188 68.027344 296.503906 81.125 C 299.15625 79.71875 302.089844 78.652344 305.15625 77.957031 C 323.648438 73.773438 342.054688 84.777344 347.289062 102.789062 C 347.441406 103.460938 347.640625 104.121094 347.804688 104.839844 Z M 347.804688 104.839844 " fill-opacity="1" fill-rule="nonzero"/></g></g></g><g clip-path="url(#clip-65)"><g clip-path="url(#clip-66)"><g clip-path="url(#clip-67)"><path fill="rgb(100%, 100%, 100%)" d="M 256.152344 101.507812 C 255.777344 81.804688 271.4375 65.53125 291.132812 65.15625 C 291.820312 65.144531 292.507812 65.132812 293.246094 65.167969 C 297.179688 65.335938 300.976562 66.101562 304.492188 67.460938 C 306.605469 64.863281 308.917969 62.460938 311.429688 60.25 C 321.191406 51.707031 333.914062 46.402344 347.914062 46.136719 C 360.191406 45.90625 371.660156 49.570312 381.117188 56.027344 C 383.851562 55.042969 386.6875 54.300781 389.574219 53.753906 C 392.707031 53.15625 395.894531 52.847656 399.1875 52.785156 C 409.5 52.589844 419.226562 55.160156 427.714844 59.765625 C 431.390625 61.761719 434.777344 64.15625 437.925781 66.898438 C 443.96875 61.816406 451.722656 58.671875 460.21875 58.511719 C 474.117188 58.246094 486.300781 65.980469 492.414062 77.464844 C 494.964844 82.285156 496.441406 87.710938 496.550781 93.511719 C 496.925781 113.214844 481.265625 129.488281 461.570312 129.863281 C 461.421875 129.867188 461.277344 129.867188 461.128906 129.871094 C 457.980469 158.097656 434.421875 180.273438 405.347656 180.824219 C 386.929688 181.171875 370.359375 172.738281 359.6875 159.371094 C 356.554688 159.972656 353.367188 160.277344 350.078125 160.339844 C 329.941406 160.722656 312.0625 150.640625 301.597656 135.109375 C 298.714844 135.949219 295.628906 136.402344 292.484375 136.460938 C 273.527344 136.820312 257.726562 122.324219 256.242188 103.621094 C 256.226562 102.933594 256.164062 102.246094 256.152344 101.507812 Z M 256.152344 101.507812 " fill-opacity="1" fill-rule="nonzero"/></g></g></g><g clip-path="url(#clip-68)"><g clip-path="url(#clip-69)"><g clip-path="url(#clip-70)"><path fill="rgb(100%, 100%, 100%)" d="M 673.582031 112.46875 C 676.402344 131.976562 694.492188 145.5 713.988281 142.679688 C 714.667969 142.578125 715.347656 142.480469 716.070312 142.328125 C 719.925781 141.519531 723.546875 140.152344 726.796875 138.242188 C 729.300781 140.460938 731.972656 142.460938 734.808594 144.234375 C 745.828125 151.082031 759.242188 154.257812 773.097656 152.25 C 785.25 150.492188 795.976562 145.019531 804.261719 137.117188 C 807.117188 137.644531 810.035156 137.917969 812.976562 137.988281 C 816.164062 138.074219 819.359375 137.859375 822.617188 137.390625 C 832.828125 135.914062 842.011719 131.800781 849.640625 125.882812 C 852.945312 123.316406 855.898438 120.40625 858.558594 117.191406 C 865.347656 121.226562 873.507812 123.074219 881.917969 121.855469 C 895.675781 119.867188 906.449219 110.261719 910.621094 97.941406 C 912.355469 92.773438 912.933594 87.175781 912.105469 81.4375 C 909.28125 61.929688 891.195312 48.40625 871.699219 51.226562 C 871.554688 51.25 871.40625 51.269531 871.261719 51.292969 C 863.582031 23.945312 836.746094 5.878906 807.964844 10.042969 C 789.734375 12.679688 774.746094 23.6875 766.382812 38.605469 C 763.195312 38.519531 760 38.734375 756.742188 39.207031 C 736.808594 42.089844 720.796875 54.933594 712.988281 71.957031 C 710.003906 71.59375 706.886719 71.648438 703.773438 72.097656 C 685.007812 74.8125 671.765625 91.675781 673.328125 110.371094 C 673.425781 111.050781 673.476562 111.742188 673.582031 112.46875 Z M 673.582031 112.46875 " fill-opacity="1" fill-rule="nonzero"/></g></g></g><g clip-path="url(#clip-71)"><g clip-path="url(#clip-72)"><g clip-path="url(#clip-73)"><path fill="rgb(100%, 94.898987%, 78.039551%)" d="M 830.691406 28.765625 C 830.375 45.535156 825.054688 53.210938 823.082031 55.515625 C 822.765625 55.875 822.902344 56.386719 823.351562 56.546875 C 826.148438 57.554688 834.558594 61.679688 843.09375 76.132812 C 843.421875 76.6875 844.269531 76.46875 844.28125 75.820312 C 844.507812 59.074219 850.085938 51.332031 852.144531 49.003906 C 852.457031 48.648438 852.3125 48.089844 851.863281 47.933594 C 848.9375 46.957031 840.273438 42.898438 831.863281 28.414062 C 831.539062 27.855469 830.691406 28.078125 830.691406 28.765625 Z M 830.691406 28.765625 " fill-opacity="1" fill-rule="nonzero"/></g></g></g><g clip-path="url(#clip-74)"><g clip-path="url(#clip-75)"><g clip-path="url(#clip-76)"><path fill="rgb(100%, 94.898987%, 78.039551%)" d="M 383.886719 37.046875 C 379.582031 49.335938 373.769531 53.707031 371.742188 54.929688 C 371.421875 55.117188 371.398438 55.527344 371.691406 55.753906 C 373.523438 57.175781 378.761719 62.253906 381.582031 74.976562 C 381.6875 75.464844 382.371094 75.507812 382.539062 75.035156 C 386.777344 62.738281 392.792969 58.382812 394.886719 57.164062 C 395.207031 56.976562 395.234375 56.53125 394.941406 56.304688 C 393.007812 54.875 387.566406 49.785156 384.847656 37.070312 C 384.738281 36.578125 384.054688 36.539062 383.886719 37.046875 Z M 383.886719 37.046875 " fill-opacity="1" fill-rule="nonzero"/></g></g></g><g clip-path="url(#clip-77)"><g clip-path="url(#clip-78)"><g clip-path="url(#clip-79)"><path fill="rgb(77.249146%, 67.83905%, 92.158508%)" d="M 207.5625 52.511719 L 215.179688 62.210938 L 227.417969 61.417969 L 220.625 71.683594 L 225.195312 83.152344 L 213.378906 79.796875 L 203.953125 87.683594 L 203.445312 75.347656 L 193.0625 68.742188 L 204.5625 64.476562 Z M 207.5625 52.511719 " fill-opacity="1" fill-rule="nonzero"/></g></g></g><g clip-path="url(#clip-80)"><g clip-path="url(#clip-81)"><g clip-path="url(#clip-82)"><path fill="rgb(77.249146%, 67.83905%, 92.158508%)" d="M 207.460938 52.425781 L 215.082031 62.125 L 227.320312 61.332031 L 220.527344 71.597656 L 225.089844 83.066406 L 213.277344 79.710938 L 203.855469 87.59375 L 203.347656 75.257812 L 192.957031 68.65625 L 204.457031 64.386719 Z M 207.460938 52.425781 " fill-opacity="1" fill-rule="nonzero"/><path fill="rgb(77.249146%, 67.83905%, 92.158508%)" d="M 207.460938 52.425781 L 215.082031 62.125 L 227.320312 61.332031 L 220.527344 71.597656 L 225.089844 83.066406 L 213.277344 79.710938 L 203.855469 87.59375 L 203.347656 75.257812 L 192.957031 68.65625 L 204.457031 64.386719 Z M 207.460938 52.425781 " fill-opacity="1" fill-rule="nonzero"/><path fill="rgb(77.249146%, 67.83905%, 92.158508%)" d="M 207.460938 52.425781 L 215.082031 62.125 L 227.320312 61.332031 L 220.527344 71.597656 L 225.089844 83.066406 L 213.277344 79.710938 L 203.855469 87.59375 L 203.347656 75.257812 L 192.957031 68.65625 L 204.457031 64.386719 Z M 207.460938 52.425781 " fill-opacity="1" fill-rule="nonzero"/></g></g></g><g clip-path="url(#clip-83)"><g clip-path="url(#clip-84)"><g clip-path="url(#clip-85)"><path fill="rgb(77.249146%, 67.83905%, 92.158508%)" d="M 725.425781 43.046875 L 728.984375 53.480469 L 739.765625 56.574219 L 730.746094 63.058594 L 731.140625 74.039062 L 722.003906 67.609375 L 711.453125 71.296875 L 714.824219 60.84375 L 707.925781 52.140625 L 719.144531 52.109375 Z M 725.425781 43.046875 " fill-opacity="1" fill-rule="nonzero"/></g></g></g><g clip-path="url(#clip-86)"><g clip-path="url(#clip-87)"><g clip-path="url(#clip-88)"><path fill="rgb(77.249146%, 67.83905%, 92.158508%)" d="M 725.359375 42.941406 L 728.925781 53.378906 L 739.707031 56.472656 L 730.691406 62.957031 L 731.078125 73.933594 L 721.941406 67.503906 L 711.398438 71.191406 L 714.765625 60.742188 L 707.863281 52.039062 L 719.082031 52.007812 Z M 725.359375 42.941406 " fill-opacity="1" fill-rule="nonzero"/><path fill="rgb(77.249146%, 67.83905%, 92.158508%)" d="M 725.359375 42.941406 L 728.925781 53.378906 L 739.707031 56.472656 L 730.691406 62.957031 L 731.078125 73.933594 L 721.941406 67.503906 L 711.398438 71.191406 L 714.765625 60.742188 L 707.863281 52.039062 L 719.082031 52.007812 Z M 725.359375 42.941406 " fill-opacity="1" fill-rule="nonzero"/><path fill="rgb(77.249146%, 67.83905%, 92.158508%)" d="M 725.359375 42.941406 L 728.925781 53.378906 L 739.707031 56.472656 L 730.691406 62.957031 L 731.078125 73.933594 L 721.941406 67.503906 L 711.398438 71.191406 L 714.765625 60.742188 L 707.863281 52.039062 L 719.082031 52.007812 Z M 725.359375 42.941406 " fill-opacity="1" fill-rule="nonzero"/></g></g></g><g clip-path="url(#clip-89)"><g clip-path="url(#clip-90)"><g clip-path="url(#clip-91)"><path fill="rgb(98.039246%, 56.858826%, 83.139038%)" d="M 95.433594 32.695312 C 96.988281 27.046875 93.65625 21.207031 87.992188 19.648438 C 84.554688 18.703125 81.054688 19.558594 78.480469 21.636719 C 77.332031 18.535156 74.761719 16.007812 71.324219 15.0625 C 65.660156 13.507812 59.808594 16.820312 58.257812 22.46875 C 58.035156 23.269531 57.925781 24.074219 57.894531 24.867188 C 56.890625 34.082031 64.171875 46.09375 70.519531 50.589844 C 78.273438 49.972656 90.667969 43.371094 94.515625 34.941406 C 94.898438 34.242188 95.214844 33.496094 95.433594 32.695312 Z M 95.433594 32.695312 " fill-opacity="1" fill-rule="nonzero"/></g></g></g><g clip-path="url(#clip-92)"><g clip-path="url(#clip-93)"><g clip-path="url(#clip-94)"><path fill="rgb(98.039246%, 56.858826%, 83.139038%)" d="M 592.335938 58.164062 C 591.695312 53.753906 587.640625 50.691406 583.28125 51.324219 C 580.636719 51.710938 578.492188 53.371094 577.355469 55.597656 C 575.628906 53.789062 573.101562 52.804688 570.453125 53.191406 C 566.09375 53.824219 563.078125 57.910156 563.722656 62.324219 C 563.8125 62.949219 563.976562 63.542969 564.199219 64.105469 C 566.292969 70.835938 574.921875 77.003906 580.640625 78.210938 C 585.777344 75.425781 592.292969 67.058594 592.386719 60.007812 C 592.4375 59.40625 592.429688 58.789062 592.335938 58.164062 Z M 592.335938 58.164062 " fill-opacity="1" fill-rule="nonzero"/></g></g></g><g clip-path="url(#clip-95)"><g mask="url(#mask-8)"><g transform="matrix(1, 0, 0, 1, 778, 86)"><g id="source-29" clip-path="url(#clip-99)"><g clip-path="url(#clip-96)"><g clip-path="url(#clip-97)"><g clip-path="url(#clip-98)"><path fill="rgb(100%, 100%, 100%)" d="M 5.398438 63.699219 C 6.472656 75.738281 17.121094 84.621094 29.183594 83.546875 C 29.605469 83.507812 30.027344 83.46875 30.476562 83.398438 C 32.871094 83.035156 35.140625 82.320312 37.199219 81.257812 C 38.660156 82.699219 40.234375 84.011719 41.917969 85.195312 C 48.449219 89.757812 56.578125 92.148438 65.152344 91.382812 C 72.671875 90.710938 79.441406 87.71875 84.796875 83.15625 C 86.53125 83.574219 88.316406 83.839844 90.117188 83.984375 C 92.070312 84.140625 94.039062 84.117188 96.054688 83.9375 C 102.375 83.375 108.152344 81.164062 113.035156 77.792969 C 115.152344 76.332031 117.0625 74.648438 118.804688 72.769531 C 122.835938 75.464844 127.785156 76.871094 132.988281 76.40625 C 141.503906 75.648438 148.441406 70.125 151.417969 62.71875 C 152.65625 59.613281 153.203125 56.207031 152.886719 52.664062 C 151.8125 40.625 141.164062 31.738281 129.101562 32.816406 C 129.011719 32.824219 128.921875 32.832031 128.832031 32.839844 C 125.039062 15.835938 109.175781 3.878906 91.363281 5.464844 C 80.082031 6.472656 70.507812 12.710938 64.871094 21.566406 C 62.914062 21.40625 60.945312 21.433594 58.929688 21.613281 C 46.59375 22.710938 36.332031 30.042969 30.960938 40.207031 C 29.140625 39.882812 27.226562 39.8125 25.300781 39.984375 C 13.6875 41.019531 4.984375 50.902344 5.3125 62.402344 C 5.351562 62.824219 5.359375 63.246094 5.398438 63.699219 Z M 5.398438 63.699219 " fill-opacity="1" fill-rule="nonzero"/></g></g></g></g></g></g></g><g clip-path="url(#clip-100)"><g mask="url(#mask-9)"><g transform="matrix(1, 0, 0, 1, 108, 99)"><g id="source-32" clip-path="url(#clip-104)"><g clip-path="url(#clip-101)"><g clip-path="url(#clip-102)"><g clip-path="url(#clip-103)"><path fill="rgb(100%, 100%, 100%)" d="M 11.160156 49.007812 C 7.476562 60.519531 13.839844 72.839844 25.375 76.53125 C 25.777344 76.660156 26.179688 76.789062 26.621094 76.898438 C 28.96875 77.492188 31.339844 77.714844 33.648438 77.535156 C 34.4375 79.433594 35.378906 81.253906 36.46875 82.992188 C 40.71875 89.734375 47.28125 95.09375 55.480469 97.71875 C 62.671875 100.019531 70.070312 99.886719 76.777344 97.761719 C 78.214844 98.824219 79.753906 99.757812 81.359375 100.589844 C 83.097656 101.496094 84.921875 102.238281 86.851562 102.851562 C 92.890625 104.785156 99.074219 104.992188 104.882812 103.78125 C 107.398438 103.257812 109.8125 102.449219 112.148438 101.394531 C 114.816406 105.445312 118.832031 108.660156 123.808594 110.25 C 131.949219 112.855469 140.488281 110.460938 146.105469 104.792969 C 148.457031 102.410156 150.28125 99.480469 151.363281 96.09375 C 155.050781 84.582031 148.683594 72.261719 137.148438 68.570312 C 137.0625 68.542969 136.976562 68.515625 136.890625 68.488281 C 139.996094 51.347656 130.019531 34.164062 112.988281 28.714844 C 102.199219 25.261719 90.957031 27.296875 82.324219 33.265625 C 80.582031 32.363281 78.757812 31.621094 76.832031 31.003906 C 65.035156 27.230469 52.730469 30 43.835938 37.28125 C 42.285156 36.277344 40.546875 35.46875 38.707031 34.878906 C 27.601562 31.324219 15.746094 37.054688 11.582031 47.78125 C 11.457031 48.183594 11.296875 48.574219 11.160156 49.007812 Z M 11.160156 49.007812 " fill-opacity="1" fill-rule="nonzero"/></g></g></g></g></g></g></g><g clip-path="url(#clip-105)"><g clip-path="url(#clip-106)"><g clip-path="url(#clip-107)"><path fill="rgb(100%, 100%, 100%)" d="M 10.960938 95.417969 C 7.203125 110.53125 16.425781 125.828125 31.5625 129.59375 C 32.089844 129.726562 32.617188 129.859375 33.195312 129.960938 C 36.261719 130.523438 39.328125 130.605469 42.28125 130.179688 C 43.453125 132.554688 44.816406 134.8125 46.367188 136.960938 C 52.398438 145.261719 61.285156 151.59375 72.042969 154.269531 C 81.480469 156.617188 90.980469 155.820312 99.417969 152.519531 C 101.351562 153.761719 103.410156 154.832031 105.542969 155.761719 C 107.855469 156.777344 110.265625 157.578125 112.792969 158.207031 C 120.71875 160.179688 128.683594 159.917969 136.046875 157.871094 C 139.234375 156.980469 142.269531 155.734375 145.183594 154.179688 C 148.953125 159.160156 154.382812 162.953125 160.914062 164.578125 C 171.597656 167.234375 182.363281 163.429688 189.109375 155.664062 C 191.921875 152.402344 194.019531 148.484375 195.125 144.039062 C 198.886719 128.925781 189.664062 113.628906 174.527344 109.863281 C 174.414062 109.832031 174.300781 109.804688 174.1875 109.777344 C 176.726562 87.480469 162.449219 66.242188 140.101562 60.683594 C 125.945312 57.160156 111.667969 60.730469 101.078125 69.140625 C 98.765625 68.125 96.359375 67.328125 93.828125 66.699219 C 78.351562 62.847656 62.773438 67.457031 51.960938 77.570312 C 49.882812 76.414062 47.582031 75.519531 45.164062 74.917969 C 30.59375 71.292969 15.84375 79.667969 11.402344 93.808594 C 11.269531 94.335938 11.101562 94.855469 10.960938 95.417969 Z M 10.960938 95.417969 " fill-opacity="1" fill-rule="nonzero"/></g></g></g><g mask="url(#mask-10)"><g transform="matrix(1, 0, 0, 1, 302, 80)"><g id="source-35" clip-path="url(#clip-109)"><g clip-path="url(#clip-108)"><path fill="rgb(100%, 100%, 100%)" d="M 1.109375 80.386719 C 1.109375 99.441406 16.53125 114.886719 35.554688 114.886719 C 36.21875 114.886719 36.882812 114.886719 37.59375 114.839844 C 41.390625 114.601562 45.042969 113.792969 48.410156 112.414062 C 50.5 114.886719 52.777344 117.167969 55.242188 119.257812 C 64.824219 127.335938 77.207031 132.230469 90.730469 132.230469 C 102.589844 132.230469 113.597656 128.476562 122.609375 122.0625 C 125.269531 122.964844 128.019531 123.628906 130.816406 124.105469 C 133.855469 124.628906 136.9375 124.863281 140.117188 124.863281 C 150.078125 124.863281 159.425781 122.203125 167.539062 117.59375 C 171.050781 115.597656 174.277344 113.222656 177.265625 110.515625 C 183.195312 115.3125 190.738281 118.210938 198.945312 118.210938 C 212.371094 118.210938 223.996094 110.515625 229.6875 99.300781 C 232.058594 94.59375 233.386719 89.320312 233.386719 83.714844 C 233.386719 64.65625 217.96875 49.214844 198.945312 49.214844 C 198.804688 49.214844 198.660156 49.214844 198.519531 49.214844 C 194.960938 21.984375 171.808594 0.980469 143.722656 0.980469 C 125.933594 0.980469 110.085938 9.4375 100.027344 22.554688 C 96.992188 22.03125 93.910156 21.792969 90.730469 21.792969 C 71.277344 21.792969 54.199219 31.867188 44.378906 47.074219 C 41.578125 46.316406 38.589844 45.933594 35.554688 45.933594 C 17.242188 45.933594 2.25 60.238281 1.160156 78.34375 C 1.160156 79.007812 1.109375 79.671875 1.109375 80.386719 Z M 1.109375 80.386719 " fill-opacity="1" fill-rule="nonzero"/></g></g></g></g><g clip-path="url(#clip-110)"><g clip-path="url(#clip-111)"><g clip-path="url(#clip-112)"><path fill="rgb(100%, 94.898987%, 78.039551%)" d="M 473.964844 127.488281 C 470.882812 135.769531 466.894531 138.652344 465.511719 139.457031 C 465.292969 139.578125 465.269531 139.859375 465.464844 140.015625 C 466.683594 141.003906 470.148438 144.519531 471.875 153.191406 C 471.941406 153.523438 472.402344 153.5625 472.519531 153.242188 C 475.554688 144.960938 479.683594 142.085938 481.113281 141.289062 C 481.332031 141.164062 481.355469 140.863281 481.160156 140.707031 C 479.875 139.710938 476.269531 136.183594 474.613281 127.519531 C 474.546875 127.183594 474.085938 127.148438 473.964844 127.488281 Z M 473.964844 127.488281 " fill-opacity="1" fill-rule="nonzero"/></g></g></g><g clip-path="url(#clip-113)"><g clip-path="url(#clip-114)"><g clip-path="url(#clip-115)"><path fill="rgb(100%, 94.898987%, 78.039551%)" d="M 450.089844 127.167969 C 444.925781 140.78125 438.21875 145.515625 435.886719 146.832031 C 435.519531 147.03125 435.480469 147.492188 435.8125 147.75 C 437.863281 149.382812 443.710938 155.179688 446.648438 169.453125 C 446.757812 170 447.53125 170.0625 447.730469 169.539062 C 452.820312 155.921875 459.757812 151.203125 462.167969 149.898438 C 462.535156 149.695312 462.574219 149.199219 462.246094 148.9375 C 460.078125 147.296875 453.996094 141.480469 451.179688 127.21875 C 451.066406 126.671875 450.292969 126.605469 450.089844 127.167969 Z M 450.089844 127.167969 " fill-opacity="1" fill-rule="nonzero"/></g></g></g><g clip-path="url(#clip-116)"><g clip-path="url(#clip-117)"><g clip-path="url(#clip-118)"><path fill="rgb(77.249146%, 67.83905%, 92.158508%)" d="M 675.539062 108.015625 L 680.714844 116.117188 L 690.363281 116.460938 L 684.210938 123.875 L 686.859375 133.109375 L 677.878906 129.589844 L 669.859375 134.953125 L 670.460938 125.367188 L 662.867188 119.441406 L 672.21875 117.039062 Z M 675.539062 108.015625 " fill-opacity="1" fill-rule="nonzero"/></g></g></g><g clip-path="url(#clip-119)"><g clip-path="url(#clip-120)"><g clip-path="url(#clip-121)"><path fill="rgb(77.249146%, 67.83905%, 92.158508%)" d="M 675.464844 107.941406 L 680.644531 116.042969 L 690.292969 116.386719 L 684.140625 123.800781 L 686.785156 133.035156 L 677.804688 129.511719 L 669.789062 134.878906 L 670.390625 125.292969 L 662.792969 119.367188 L 672.140625 116.964844 Z M 675.464844 107.941406 " fill-opacity="1" fill-rule="nonzero"/><path fill="rgb(77.249146%, 67.83905%, 92.158508%)" d="M 675.464844 107.941406 L 680.644531 116.042969 L 690.292969 116.386719 L 684.140625 123.800781 L 686.785156 133.035156 L 677.804688 129.511719 L 669.789062 134.878906 L 670.390625 125.292969 L 662.792969 119.367188 L 672.140625 116.964844 Z M 675.464844 107.941406 " fill-opacity="1" fill-rule="nonzero"/><path fill="rgb(77.249146%, 67.83905%, 92.158508%)" d="M 675.464844 107.941406 L 680.644531 116.042969 L 690.292969 116.386719 L 684.140625 123.800781 L 686.785156 133.035156 L 677.804688 129.511719 L 669.789062 134.878906 L 670.390625 125.292969 L 662.792969 119.367188 L 672.140625 116.964844 Z M 675.464844 107.941406 " fill-opacity="1" fill-rule="nonzero"/></g></g></g><g clip-path="url(#clip-122)"><g clip-path="url(#clip-123)"><g clip-path="url(#clip-124)"><path fill="rgb(100%, 100%, 100%)" d="M -19.910156 128.75 C -23.667969 143.859375 -14.445312 159.15625 0.691406 162.921875 C 1.21875 163.054688 1.75 163.1875 2.324219 163.289062 C 5.390625 163.851562 8.457031 163.933594 11.410156 163.507812 C 12.582031 165.882812 13.945312 168.140625 15.496094 170.289062 C 21.527344 178.589844 30.414062 184.921875 41.171875 187.601562 C 50.609375 189.949219 60.109375 189.148438 68.546875 185.847656 C 70.480469 187.089844 72.539062 188.160156 74.671875 189.09375 C 76.984375 190.105469 79.394531 190.90625 81.921875 191.535156 C 89.851562 193.507812 97.8125 193.246094 105.175781 191.199219 C 108.363281 190.3125 111.398438 189.066406 114.3125 187.507812 C 118.082031 192.488281 123.511719 196.28125 130.042969 197.90625 C 140.726562 200.5625 151.496094 196.757812 158.238281 188.992188 C 161.050781 185.730469 163.148438 181.8125 164.257812 177.367188 C 168.015625 162.253906 158.792969 146.957031 143.65625 143.191406 C 143.542969 143.164062 143.429688 143.132812 143.316406 143.105469 C 145.855469 120.808594 131.578125 99.570312 109.230469 94.011719 C 95.074219 90.492188 80.796875 94.0625 70.207031 102.46875 C 67.894531 101.453125 65.488281 100.65625 62.957031 100.027344 C 47.480469 96.175781 31.902344 100.785156 21.089844 110.898438 C 19.011719 109.742188 16.710938 108.847656 14.292969 108.246094 C -0.277344 104.621094 -15.027344 112.996094 -19.46875 127.136719 C -19.597656 127.664062 -19.769531 128.183594 -19.910156 128.75 Z M -19.910156 128.75 " fill-opacity="1" fill-rule="nonzero"/></g></g></g><g clip-path="url(#clip-125)"><g clip-path="url(#clip-126)"><g clip-path="url(#clip-127)"><path fill="rgb(98.039246%, 56.858826%, 83.139038%)" d="M 19.480469 157.425781 C 18.839844 153.015625 14.785156 149.953125 10.425781 150.585938 C 7.78125 150.972656 5.636719 152.632812 4.496094 154.859375 C 2.769531 153.046875 0.242188 152.066406 -2.402344 152.449219 C -6.761719 153.085938 -9.777344 157.171875 -9.136719 161.582031 C -9.046875 162.207031 -8.878906 162.800781 -8.660156 163.367188 C -6.5625 170.097656 2.066406 176.261719 7.78125 177.46875 C 12.917969 174.6875 19.4375 166.316406 19.527344 159.269531 C 19.582031 158.667969 19.570312 158.050781 19.480469 157.425781 Z M 19.480469 157.425781 " fill-opacity="1" fill-rule="nonzero"/></g></g></g></svg>