<?xml version="1.0" encoding="UTF-8"?><svg xmlns="http://www.w3.org/2000/svg" xmlns:xlink="http://www.w3.org/1999/xlink" contentScriptType="text/ecmascript" width="37.5" zoomAndPan="magnify" contentStyleType="text/css" viewBox="0 0 37.5 37.499999" height="37.499999" preserveAspectRatio="xMidYMid meet" version="1.0"><defs><clipPath id="clip-0"><path d="M 0 0 L 37.007812 0 L 37.007812 37.007812 L 0 37.007812 Z M 0 0 " clip-rule="nonzero"/></clipPath><clipPath id="clip-1"><path d="M 7.429688 10.53125 L 30 10.53125 L 30 26.925781 L 7.429688 26.925781 Z M 7.429688 10.53125 " clip-rule="nonzero"/></clipPath></defs><g clip-path="url(#clip-0)"><path fill="rgb(98.039246%, 56.858826%, 83.139038%)" d="M 18.722656 0 C 8.382812 0 0 8.382812 0 18.722656 C 0 29.0625 8.382812 37.445312 18.722656 37.445312 C 29.0625 37.445312 37.445312 29.0625 37.445312 18.722656 C 37.445312 8.382812 29.0625 0 18.722656 0 Z M 18.722656 0 " fill-opacity="1" fill-rule="nonzero"/></g><g clip-path="url(#clip-1)"><path fill="rgb(100%, 100%, 100%)" d="M 26.738281 12.3125 C 24.820312 10.773438 21.789062 10.511719 21.660156 10.5 C 21.457031 10.484375 21.265625 10.597656 21.179688 10.78125 C 21.175781 10.796875 21.109375 10.945312 21.035156 11.183594 C 22.304688 11.398438 23.859375 11.828125 25.269531 12.703125 C 25.496094 12.839844 25.566406 13.136719 25.425781 13.363281 C 25.335938 13.511719 25.175781 13.589844 25.015625 13.589844 C 24.929688 13.589844 24.839844 13.566406 24.761719 13.519531 C 22.339844 12.019531 19.3125 11.941406 18.730469 11.941406 C 18.148438 11.941406 15.121094 12.019531 12.703125 13.519531 C 12.476562 13.660156 12.179688 13.589844 12.039062 13.363281 C 11.898438 13.136719 11.96875 12.84375 12.191406 12.703125 C 13.601562 11.828125 15.160156 11.398438 16.425781 11.183594 C 16.351562 10.945312 16.285156 10.796875 16.28125 10.78125 C 16.199219 10.597656 16.007812 10.480469 15.804688 10.5 C 15.675781 10.511719 12.644531 10.773438 10.699219 12.335938 C 9.683594 13.269531 7.65625 18.75 7.65625 23.488281 C 7.65625 23.570312 7.679688 23.65625 7.71875 23.726562 C 9.121094 26.183594 12.941406 26.828125 13.8125 26.855469 C 13.816406 26.855469 13.820312 26.855469 13.824219 26.855469 C 13.980469 26.855469 14.125 26.78125 14.214844 26.65625 L 15.097656 25.449219 C 12.722656 24.835938 11.507812 23.792969 11.4375 23.734375 C 11.238281 23.558594 11.21875 23.253906 11.394531 23.054688 C 11.570312 22.855469 11.875 22.835938 12.074219 23.011719 C 12.101562 23.035156 14.335938 24.929688 18.730469 24.929688 C 23.132812 24.929688 25.367188 23.027344 25.386719 23.007812 C 25.589844 22.835938 25.890625 22.855469 26.066406 23.054688 C 26.242188 23.253906 26.222656 23.558594 26.023438 23.730469 C 25.953125 23.792969 24.742188 24.835938 22.367188 25.449219 L 23.246094 26.65625 C 23.335938 26.78125 23.484375 26.855469 23.636719 26.855469 C 23.640625 26.855469 23.648438 26.855469 23.652344 26.855469 C 24.523438 26.828125 28.34375 26.183594 29.742188 23.726562 C 29.78125 23.652344 29.804688 23.570312 29.804688 23.488281 C 29.804688 18.75 27.777344 13.269531 26.738281 12.3125 Z M 15.601562 21.5625 C 14.671875 21.5625 13.914062 20.703125 13.914062 19.640625 C 13.914062 18.578125 14.667969 17.714844 15.601562 17.714844 C 16.53125 17.714844 17.285156 18.578125 17.285156 19.640625 C 17.285156 20.703125 16.53125 21.5625 15.601562 21.5625 Z M 21.859375 21.5625 C 20.929688 21.5625 20.175781 20.703125 20.175781 19.640625 C 20.175781 18.578125 20.929688 17.714844 21.859375 17.714844 C 22.792969 17.714844 23.546875 18.578125 23.546875 19.640625 C 23.546875 20.703125 22.792969 21.5625 21.859375 21.5625 Z M 21.859375 21.5625 " fill-opacity="1" fill-rule="nonzero"/></g></svg>