<?xml version="1.0" encoding="UTF-8"?><svg xmlns="http://www.w3.org/2000/svg" xmlns:xlink="http://www.w3.org/1999/xlink" contentScriptType="text/ecmascript" width="37.5" zoomAndPan="magnify" contentStyleType="text/css" viewBox="0 0 37.5 37.499999" height="37.499999" preserveAspectRatio="xMidYMid meet" version="1.0"><defs><clipPath id="clip-0"><path d="M 0 0 L 37.007812 0 L 37.007812 37.007812 L 0 37.007812 Z M 0 0 " clip-rule="nonzero"/></clipPath><clipPath id="clip-1"><path d="M 8.539062 8.539062 L 28.925781 8.539062 L 28.925781 28.925781 L 8.539062 28.925781 Z M 8.539062 8.539062 " clip-rule="nonzero"/></clipPath></defs><g clip-path="url(#clip-0)"><path fill="rgb(98.039246%, 56.858826%, 83.139038%)" d="M 18.722656 0 C 8.382812 0 0 8.382812 0 18.722656 C 0 29.0625 8.382812 37.445312 18.722656 37.445312 C 29.0625 37.445312 37.445312 29.0625 37.445312 18.722656 C 37.445312 8.382812 29.0625 0 18.722656 0 Z M 18.722656 0 " fill-opacity="1" fill-rule="nonzero"/></g><g clip-path="url(#clip-1)"><path fill="rgb(100%, 100%, 100%)" d="M 18.726562 10.378906 C 21.449219 10.378906 21.769531 10.386719 22.847656 10.4375 C 23.835938 10.480469 24.378906 10.644531 24.738281 10.789062 C 25.214844 10.972656 25.554688 11.195312 25.910156 11.554688 C 26.265625 11.910156 26.484375 12.25 26.675781 12.722656 C 26.8125 13.082031 26.976562 13.621094 27.027344 14.617188 C 27.074219 15.695312 27.085938 16.015625 27.085938 18.734375 C 27.085938 21.453125 27.074219 21.777344 27.027344 22.851562 C 26.980469 23.84375 26.816406 24.386719 26.675781 24.746094 C 26.492188 25.21875 26.265625 25.558594 25.910156 25.917969 C 25.554688 26.273438 25.214844 26.492188 24.738281 26.679688 C 24.382812 26.820312 23.84375 26.984375 22.847656 27.035156 C 21.769531 27.082031 21.449219 27.089844 18.726562 27.089844 C 16.007812 27.089844 15.6875 27.082031 14.609375 27.035156 C 13.617188 26.988281 13.078125 26.824219 12.714844 26.679688 C 12.242188 26.496094 11.902344 26.273438 11.546875 25.917969 C 11.1875 25.558594 10.96875 25.21875 10.78125 24.746094 C 10.644531 24.390625 10.480469 23.847656 10.429688 22.851562 C 10.378906 21.777344 10.371094 21.453125 10.371094 18.734375 C 10.371094 16.015625 10.378906 15.695312 10.429688 14.617188 C 10.472656 13.625 10.640625 13.085938 10.78125 12.722656 C 10.964844 12.25 11.1875 11.910156 11.546875 11.554688 C 11.902344 11.195312 12.242188 10.976562 12.714844 10.789062 C 13.074219 10.652344 13.613281 10.484375 14.609375 10.4375 C 15.6875 10.386719 16.007812 10.378906 18.726562 10.378906 M 18.726562 8.542969 C 15.960938 8.542969 15.613281 8.554688 14.527344 8.605469 C 13.441406 8.65625 12.699219 8.828125 12.050781 9.078125 C 11.382812 9.335938 10.8125 9.6875 10.246094 10.253906 C 9.683594 10.820312 9.335938 11.386719 9.078125 12.058594 C 8.828125 12.707031 8.652344 13.445312 8.601562 14.53125 C 8.554688 15.617188 8.539062 15.964844 8.539062 18.730469 C 8.539062 21.5 8.554688 21.84375 8.601562 22.933594 C 8.652344 24.019531 8.828125 24.761719 9.078125 25.40625 C 9.335938 26.078125 9.683594 26.644531 10.25 27.210938 C 10.816406 27.78125 11.386719 28.128906 12.054688 28.386719 C 12.703125 28.636719 13.445312 28.8125 14.53125 28.859375 C 15.613281 28.910156 15.964844 28.921875 18.734375 28.921875 C 21.5 28.921875 21.847656 28.910156 22.9375 28.859375 C 24.019531 28.8125 24.761719 28.636719 25.410156 28.386719 C 26.078125 28.128906 26.648438 27.78125 27.214844 27.210938 C 27.78125 26.644531 28.128906 26.078125 28.390625 25.40625 C 28.640625 24.761719 28.8125 24.019531 28.863281 22.933594 C 28.910156 21.847656 28.925781 21.5 28.925781 18.730469 C 28.925781 15.960938 28.910156 15.617188 28.863281 14.527344 C 28.8125 13.441406 28.640625 12.699219 28.390625 12.054688 C 28.128906 11.382812 27.78125 10.816406 27.214844 10.25 C 26.648438 9.683594 26.078125 9.332031 25.410156 9.074219 C 24.761719 8.824219 24.019531 8.648438 22.9375 8.601562 C 21.847656 8.554688 21.496094 8.542969 18.726562 8.542969 " fill-opacity="1" fill-rule="nonzero"/></g><path fill="rgb(100%, 100%, 100%)" d="M 18.726562 13.5 C 15.839844 13.5 13.5 15.839844 13.5 18.730469 C 13.5 21.621094 15.84375 23.964844 18.734375 23.964844 C 21.621094 23.964844 23.96875 21.625 23.96875 18.730469 C 23.960938 15.839844 21.617188 13.5 18.726562 13.5 M 18.726562 22.128906 C 16.851562 22.128906 15.332031 20.609375 15.332031 18.734375 C 15.332031 16.859375 16.851562 15.339844 18.726562 15.339844 C 20.605469 15.339844 22.121094 16.859375 22.121094 18.734375 C 22.128906 20.605469 20.605469 22.128906 18.726562 22.128906 " fill-opacity="1" fill-rule="nonzero"/><path fill="rgb(100%, 100%, 100%)" d="M 25.390625 13.296875 C 25.390625 13.96875 24.84375 14.519531 24.167969 14.519531 C 23.492188 14.519531 22.945312 13.96875 22.945312 13.296875 C 22.945312 12.621094 23.492188 12.070312 24.167969 12.070312 C 24.84375 12.070312 25.390625 12.617188 25.390625 13.296875 " fill-opacity="1" fill-rule="nonzero"/></svg>