<?xml version="1.0" encoding="UTF-8"?><svg xmlns="http://www.w3.org/2000/svg" xmlns:xlink="http://www.w3.org/1999/xlink" contentScriptType="text/ecmascript" width="37.5" zoomAndPan="magnify" contentStyleType="text/css" viewBox="0 0 37.5 37.499999" height="37.499999" preserveAspectRatio="xMidYMid meet" version="1.0"><defs><clipPath id="clip-0"><path d="M 0 0 L 37.007812 0 L 37.007812 37.007812 L 0 37.007812 Z M 0 0 " clip-rule="nonzero"/></clipPath><clipPath id="clip-1"><path d="M 7.183594 7.183594 L 30.226562 7.183594 L 30.226562 30.226562 L 7.183594 30.226562 Z M 7.183594 7.183594 " clip-rule="nonzero"/></clipPath></defs><g clip-path="url(#clip-0)"><path fill="rgb(98.039246%, 56.858826%, 83.139038%)" d="M 18.722656 0 C 8.382812 0 0 8.382812 0 18.722656 C 0 29.0625 8.382812 37.445312 18.722656 37.445312 C 29.0625 37.445312 37.445312 29.0625 37.445312 18.722656 C 37.445312 8.382812 29.0625 0 18.722656 0 Z M 18.722656 0 " fill-opacity="1" fill-rule="nonzero"/></g><g clip-path="url(#clip-1)"><path fill="rgb(100%, 100%, 100%)" d="M 27.320312 26.339844 C 29.125 24.304688 30.226562 21.632812 30.226562 18.703125 C 30.226562 12.351562 25.054688 7.183594 18.703125 7.183594 C 12.351562 7.183594 7.183594 12.351562 7.183594 18.703125 C 7.183594 25.054688 12.351562 30.226562 18.703125 30.226562 C 22.09375 30.226562 25.144531 28.753906 27.253906 26.417969 C 27.277344 26.394531 27.300781 26.371094 27.320312 26.339844 Z M 23.925781 24.421875 C 24.378906 22.871094 24.652344 21.085938 24.6875 19.164062 L 29.292969 19.164062 C 29.1875 21.570312 28.277344 23.769531 26.828125 25.5 C 25.972656 25.0625 24.992188 24.699219 23.925781 24.421875 Z M 10.578125 25.5 C 9.128906 23.769531 8.21875 21.570312 8.113281 19.164062 L 12.71875 19.164062 C 12.753906 21.085938 13.027344 22.871094 13.480469 24.421875 C 12.414062 24.699219 11.433594 25.0625 10.578125 25.5 Z M 10.578125 11.90625 C 11.433594 12.34375 12.414062 12.707031 13.480469 12.984375 C 13.027344 14.535156 12.753906 16.320312 12.71875 18.242188 L 8.113281 18.242188 C 8.21875 15.835938 9.128906 13.636719 10.578125 11.90625 Z M 26.828125 11.90625 C 28.277344 13.636719 29.1875 15.835938 29.292969 18.242188 L 24.6875 18.242188 C 24.652344 16.320312 24.378906 14.535156 23.925781 12.984375 C 24.992188 12.707031 25.972656 12.34375 26.828125 11.90625 Z M 23.765625 18.242188 L 19.164062 18.242188 L 19.164062 13.621094 C 20.496094 13.59375 21.792969 13.449219 23.007812 13.199219 C 23.453125 14.691406 23.726562 16.414062 23.765625 18.242188 Z M 19.164062 12.699219 L 19.164062 8.152344 C 20.59375 8.433594 21.871094 10.019531 22.71875 12.320312 C 21.59375 12.542969 20.394531 12.671875 19.164062 12.699219 Z M 18.242188 8.152344 L 18.242188 12.699219 C 17.011719 12.671875 15.8125 12.542969 14.691406 12.320312 C 15.535156 10.019531 16.8125 8.433594 18.242188 8.152344 Z M 18.242188 13.621094 L 18.242188 18.242188 L 13.640625 18.242188 C 13.679688 16.414062 13.953125 14.691406 14.398438 13.199219 C 15.613281 13.449219 16.910156 13.59375 18.242188 13.621094 Z M 13.640625 19.164062 L 18.242188 19.164062 L 18.242188 23.785156 C 16.910156 23.8125 15.613281 23.957031 14.398438 24.207031 C 13.953125 22.714844 13.679688 20.992188 13.640625 19.164062 Z M 18.242188 24.707031 L 18.242188 29.253906 C 16.8125 28.972656 15.535156 27.386719 14.691406 25.085938 C 15.8125 24.863281 17.011719 24.730469 18.242188 24.707031 Z M 19.164062 29.253906 L 19.164062 24.707031 C 20.394531 24.734375 21.59375 24.863281 22.71875 25.085938 C 21.871094 27.386719 20.59375 28.972656 19.164062 29.253906 Z M 19.164062 23.785156 L 19.164062 19.164062 L 23.765625 19.164062 C 23.726562 20.992188 23.453125 22.714844 23.007812 24.207031 C 21.792969 23.957031 20.496094 23.8125 19.164062 23.785156 Z M 26.183594 11.199219 C 25.425781 11.5625 24.570312 11.867188 23.644531 12.105469 C 23.101562 10.585938 22.371094 9.339844 21.511719 8.484375 C 23.300781 8.976562 24.902344 9.925781 26.183594 11.199219 Z M 13.761719 12.105469 C 12.835938 11.867188 11.980469 11.566406 11.226562 11.199219 C 12.503906 9.925781 14.105469 8.976562 15.894531 8.484375 C 15.039062 9.339844 14.308594 10.585938 13.761719 12.105469 Z M 11.222656 26.207031 C 11.980469 25.839844 12.835938 25.539062 13.761719 25.296875 C 14.308594 26.820312 15.039062 28.066406 15.894531 28.921875 C 14.105469 28.429688 12.503906 27.480469 11.222656 26.207031 Z M 23.644531 25.300781 C 24.570312 25.539062 25.425781 25.84375 26.183594 26.207031 C 24.902344 27.480469 23.300781 28.429688 21.511719 28.921875 C 22.371094 28.066406 23.101562 26.820312 23.644531 25.300781 Z M 23.644531 25.300781 " fill-opacity="1" fill-rule="nonzero"/></g></svg>