<?xml version="1.0" encoding="UTF-8"?><svg xmlns="http://www.w3.org/2000/svg" xmlns:xlink="http://www.w3.org/1999/xlink" contentScriptType="text/ecmascript" width="37.5" zoomAndPan="magnify" contentStyleType="text/css" viewBox="0 0 37.5 37.499999" height="37.499999" preserveAspectRatio="xMidYMid meet" version="1.0"><defs><clipPath id="clip-0"><path d="M 0 0 L 37.007812 0 L 37.007812 37.007812 L 0 37.007812 Z M 0 0 " clip-rule="nonzero"/></clipPath><clipPath id="clip-1"><path d="M 8.847656 11.777344 L 28.566406 11.777344 L 28.566406 25.734375 L 8.847656 25.734375 Z M 8.847656 11.777344 " clip-rule="nonzero"/></clipPath></defs><g clip-path="url(#clip-0)"><path fill="rgb(98.039246%, 56.858826%, 83.139038%)" d="M 18.722656 0 C 8.382812 0 0 8.382812 0 18.722656 C 0 29.0625 8.382812 37.445312 18.722656 37.445312 C 29.0625 37.445312 37.445312 29.0625 37.445312 18.722656 C 37.445312 8.382812 29.0625 0 18.722656 0 Z M 18.722656 0 " fill-opacity="1" fill-rule="nonzero"/></g><g clip-path="url(#clip-1)"><path fill="rgb(100%, 100%, 100%)" d="M 28.371094 14.792969 C 28.371094 14.792969 28.179688 13.425781 27.585938 12.824219 C 26.839844 12.035156 25.996094 12.03125 25.613281 11.984375 C 22.851562 11.785156 18.710938 11.785156 18.710938 11.785156 L 18.703125 11.785156 C 18.703125 11.785156 14.566406 11.785156 11.804688 11.984375 C 11.421875 12.03125 10.578125 12.035156 9.828125 12.824219 C 9.238281 13.425781 9.046875 14.792969 9.046875 14.792969 C 9.046875 14.792969 8.847656 16.394531 8.847656 18 L 8.847656 19.503906 C 8.847656 21.109375 9.046875 22.710938 9.046875 22.710938 C 9.046875 22.710938 9.238281 24.078125 9.828125 24.679688 C 10.582031 25.46875 11.566406 25.445312 12.003906 25.527344 C 13.582031 25.679688 18.707031 25.730469 18.707031 25.730469 C 18.707031 25.730469 22.851562 25.722656 25.613281 25.519531 C 26 25.472656 26.839844 25.46875 27.585938 24.679688 C 28.179688 24.078125 28.371094 22.710938 28.371094 22.710938 C 28.371094 22.710938 28.566406 21.109375 28.566406 19.503906 L 28.566406 18 C 28.566406 16.394531 28.371094 14.792969 28.371094 14.792969 Z M 16.671875 21.328125 L 16.671875 15.757812 L 22 18.550781 Z M 16.671875 21.328125 " fill-opacity="1" fill-rule="nonzero"/></g><path fill="rgb(98.039246%, 56.858826%, 83.139038%)" d="M 16.671875 15.757812 L 16.671875 21.328125 L 22 18.550781 Z M 16.671875 15.757812 " fill-opacity="1" fill-rule="nonzero"/></svg>